<svg width="418" height="353" viewBox="0 0 418 353" fill="none" xmlns="http://www.w3.org/2000/svg">
<path d="M349.131 352.316L273.435 314.549C270.829 313.25 267.842 312.877 264.965 313.492C232.004 320.826 209.136 325.269 196.362 326.821C84.8809 339.939 -6.80213 265.675 0.397001 149.306C6.53744 50.9221 99.0675 -8.95475 190.856 1.09525C280.74 10.8279 455.213 95.5652 410.853 213.309C399.949 242.295 361.518 269.166 331.875 286.515C329.844 287.736 328.371 289.698 327.777 291.975C327.182 294.253 327.513 296.663 328.699 298.681L355.695 345.334C356.259 346.263 356.502 347.351 356.389 348.431C356.276 349.511 355.811 350.525 355.067 351.316C354.323 352.108 353.34 352.634 352.268 352.815C351.196 352.995 350.094 352.82 349.131 352.316Z" fill="#390617" style="fill:#390617;fill:color(display-p3 0.2235 0.0235 0.0902);fill-opacity:1;"/>
</svg>
