<svg width="460" height="403" viewBox="0 0 460 403" fill="none" xmlns="http://www.w3.org/2000/svg">
<path d="M115.783 402.694C115.013 403.087 114.144 403.245 113.285 403.149C112.426 403.053 111.613 402.707 110.948 402.154C110.283 401.602 109.794 400.866 109.543 400.038C109.291 399.21 109.287 398.327 109.532 397.497L123.574 350.527C124.12 348.712 123.969 346.758 123.151 345.049C122.332 343.34 120.905 341.998 119.15 341.287C51.7263 312.797 -11.2728 238.877 1.71173 161.299C14.8886 81.9891 83.7548 21.0628 160.027 6.04778C243.577 -10.3789 319.977 6.65738 389.228 57.1565C479.928 123.28 479.543 225.498 407.888 305.77C353.449 366.664 279.934 388.096 187.343 370.065C183.662 369.376 179.845 369.917 176.474 371.605L115.783 402.694Z" fill="#5DA7E6" style="fill:#5DA7E6;fill:color(display-p3 0.3647 0.6549 0.9020);fill-opacity:1;"/>
</svg>
