<svg width="623" height="448" viewBox="0 0 623 448" fill="none" xmlns="http://www.w3.org/2000/svg">
<path d="M618.244 447.847L469.614 403.382C465.224 402.116 460.52 402.528 456.418 404.539C409.884 427.313 358.759 438.892 303.042 439.278C183.582 440.089 18.2838 406.971 1.152 259.562C-10.4235 159.977 67.0168 72.2038 153.37 30.9803C238.798 -9.78001 338.579 -7.34825 424.701 21.0219C559.208 65.2561 660.494 180.473 556.893 322.092C554.99 324.651 553.914 327.731 553.811 330.918C553.707 334.106 554.581 337.248 556.314 339.925L622.411 442.289C622.82 442.925 623.025 443.671 622.998 444.427C622.971 445.183 622.713 445.913 622.259 446.518C621.806 447.123 621.178 447.575 620.46 447.812C619.742 448.05 618.969 448.062 618.244 447.847Z" fill="#C8E1F5" style="fill:#C8E1F5;fill:color(display-p3 0.7843 0.8824 0.9608);fill-opacity:1;"/>
</svg>
