<?xml version="1.0" encoding="UTF-8" standalone="no"?>
<!DOCTYPE svg PUBLIC "-//W3C//DTD SVG 1.1//EN" "http://www.w3.org/Graphics/SVG/1.1/DTD/svg11.dtd">
<svg xmlns="http://www.w3.org/2000/svg" version="1.1" viewBox="8 29 172 124">
<path fill="currentColor" d="
  M 69.71 72.26
  L 69.39 72.31
  A 5.24 5.22 11.2 0 0 65.60 74.84
  C 62.19 80.66 61.04 83.53 57.37 86.17
  C 54.51 88.22 50.54 86.11 50.20 82.80
  Q 49.98 80.67 51.87 77.12
  Q 55.31 70.64 59.07 62.83
  A 2.24 2.24 0.0 0 0 58.26 59.98
  L 58.20 59.94
  A 1.91 1.90 32.2 0 0 55.54 60.54
  Q 49.13 71.04 43.03 82.28
  Q 41.34 85.39 39.20 87.43
  C 36.26 90.23 31.65 89.85 30.59 85.47
  C 30.10 83.44 31.07 80.57 32.02 78.70
  Q 37.80 67.38 42.38 57.40
  A 1.44 1.43 10.3 0 0 40.97 55.37
  L 40.83 55.39
  A 4.67 4.65 -75.6 0 0 37.26 57.51
  Q 31.74 66.07 27.87 75.14
  C 25.31 81.16 18.56 97.20 10.08 92.60
  Q 6.13 90.45 8.47 84.99
  Q 15.49 68.60 22.33 56.57
  Q 26.97 48.43 32.81 42.08
  C 37.45 37.03 46.54 31.07 53.88 30.13
  Q 62.03 29.10 68.07 31.24
  Q 81.84 36.12 87.76 49.27
  A 1.42 1.42 0.0 0 0 90.06 49.69
  Q 99.95 39.82 112.51 35.04
  Q 118.08 32.91 122.19 35.04
  A 1.84 1.68 -6.9 0 1 122.65 35.37
  L 125.18 37.94
  A 1.36 1.34 -18.9 0 0 126.01 38.34
  Q 130.04 38.73 132.87 40.79
  A 1.12 1.12 0.0 0 1 132.81 42.65
  C 130.43 44.14 128.36 43.81 126.66 48.06
  A 1.86 1.81 83.7 0 1 126.03 48.87
  L 122.35 51.51
  A 5.12 5.12 0.0 0 0 120.23 55.52
  L 120.21 56.23
  A 1.52 1.52 0.0 0 0 122.41 57.59
  Q 129.95 53.87 137.50 55.53
  C 154.00 59.15 161.85 74.37 168.53 88.11
  Q 175.21 101.82 179.63 115.85
  C 180.73 119.35 180.74 124.91 175.40 124.08
  C 169.27 123.13 165.27 114.83 163.22 109.75
  Q 158.84 98.90 154.24 89.81
  C 152.92 87.22 149.99 81.30 147.88 80.23
  A 1.40 1.40 0.0 0 0 145.90 81.08
  Q 145.04 83.96 146.28 86.72
  Q 150.62 96.32 157.73 109.85
  Q 158.41 111.16 158.77 113.10
  C 159.54 117.35 155.58 118.71 152.24 117.24
  C 148.10 115.42 143.65 107.63 142.60 104.70
  Q 138.97 94.50 134.83 87.23
  Q 133.86 85.53 132.88 84.62
  A 1.27 1.27 0.0 0 0 130.87 84.99
  Q 129.91 86.97 130.60 88.93
  Q 133.10 96.07 135.62 101.61
  C 137.57 105.89 136.89 112.38 130.97 112.68
  A 1.81 1.79 -30.9 0 1 129.95 112.43
  Q 127.59 111.05 126.97 109.73
  Q 122.29 99.67 119.93 94.96
  C 115.78 86.69 109.47 90.04 105.62 95.88
  C 102.44 100.71 100.51 105.82 98.79 112.63
  C 96.29 122.56 92.51 131.84 86.85 140.31
  C 85.75 141.97 82.98 143.81 80.88 142.58
  Q 78.84 141.38 79.06 138.86
  Q 79.32 135.89 80.85 132.08
  Q 83.37 125.84 88.27 114.02
  Q 89.93 109.99 90.22 106.06
  A 1.91 1.72 -86.2 0 0 88.62 104.03
  C 85.37 103.86 83.86 108.22 82.74 111.25
  Q 81.84 113.71 75.39 132.63
  C 74.20 136.11 67.50 152.78 61.59 146.16
  A 1.59 1.58 20.8 0 1 61.20 145.30
  Q 60.92 142.92 61.26 141.75
  Q 66.58 123.17 74.09 104.87
  Q 74.98 102.70 74.53 100.35
  A 0.95 0.95 0.0 0 0 73.25 99.65
  C 70.98 100.53 68.35 105.68 67.48 108.32
  Q 63.29 121.04 57.10 136.12
  C 54.81 141.68 48.97 138.45 48.91 133.47
  Q 48.83 127.00 51.32 120.80
  Q 61.14 96.38 71.19 74.23
  A 1.41 1.40 8.2 0 0 69.71 72.26
  Z
  M 114.4715 40.3000
  A 4.78 4.37 -93.7 0 0 110.4191 45.3520
  A 4.78 4.37 -93.7 0 0 115.0885 49.8400
  A 4.78 4.37 -93.7 0 0 119.1409 44.7880
  A 4.78 4.37 -93.7 0 0 114.4715 40.3000
  Z"
/>
</svg>
