<?xml version="1.0" encoding="UTF-8" standalone="no"?>
<!DOCTYPE svg PUBLIC "-//W3C//DTD SVG 1.1//EN" "http://www.w3.org/Graphics/SVG/1.1/DTD/svg11.dtd">
<svg xmlns="http://www.w3.org/2000/svg" version="1.1" viewBox="0.00 0.00 519.00 481.00">
<g stroke-width="2.00" fill="none" stroke-linecap="butt">
<path stroke="#837b2a" vector-effect="non-scaling-stroke" d="
  M 320.83 107.25
  Q 318.80 109.43 317.11 112.48
  Q 315.24 115.84 314.84 116.51
  Q 305.41 132.15 295.84 148.03
  Q 279.51 175.10 271.61 186.66
  Q 266.76 193.77 266.20 194.57
  A 0.45 0.45 0.0 0 1 265.51 194.63
  Q 260.49 189.52 256.71 185.41
  C 254.01 182.46 252.31 179.81 249.83 177.82
  C 248.65 176.87 247.05 174.68 246.33 173.78
  Q 244.99 172.10 243.67 170.75
  Q 233.06 159.95 224.20 148.41
  C 220.90 144.10 217.56 141.42 214.20 137.00
  C 210.19 131.72 205.46 127.34 201.90 122.45
  Q 198.15 117.30 194.91 113.98
  C 190.72 109.70 186.64 103.73 183.19 99.57
  Q 182.16 98.31 180.17 96.46"
/>
<path stroke="#ebdc33" vector-effect="non-scaling-stroke" d="
  M 78.51 104.56
  L 83.66 90.91
  A 2.31 2.31 0.0 0 0 83.25 88.61
  C 77.87 82.38 73.98 78.25 65.74 77.13
  Q 59.92 76.33 56.61 81.07
  Q 52.79 86.52 50.33 92.65
  A 1.64 1.59 -42.4 0 0 50.27 93.64
  Q 52.12 100.94 57.51 105.45
  C 60.68 108.09 65.63 108.39 69.59 108.00
  C 72.38 107.73 75.45 105.25 77.91 105.02
  A 0.72 0.71 -81.9 0 0 78.51 104.56"
/>
<path stroke="#ebdc33" vector-effect="non-scaling-stroke" d="
  M 448.30 112.39
  C 455.38 112.71 463.39 111.60 465.18 103.40
  C 466.79 96.06 467.27 87.38 458.80 84.19
  C 453.75 82.29 444.21 80.87 440.12 85.39
  C 434.38 91.71 434.07 102.28 440.19 108.54
  Q 443.75 112.18 448.30 112.39"
/>
<path stroke="#ebdc33" vector-effect="non-scaling-stroke" d="
  M 417.18 110.97
  C 413.02 112.03 409.51 113.18 405.34 115.38
  C 400.21 118.10 398.36 119.23 393.59 121.11
  Q 386.63 123.84 384.61 125.10
  Q 371.25 133.38 370.35 133.88
  C 366.14 136.24 363.17 139.40 359.47 142.23
  A 0.85 0.84 -14.5 0 1 358.12 141.44
  C 358.65 138.02 359.24 135.56 361.13 132.31
  Q 365.83 124.21 369.19 113.05
  A 0.72 0.71 87.0 0 0 368.23 112.18
  Q 360.89 115.25 354.95 121.22
  Q 352.10 124.10 349.93 126.02
  C 344.79 130.56 341.11 137.00 337.90 143.13
  C 330.82 156.68 325.11 168.80 320.48 182.78
  C 318.47 188.85 315.15 196.13 313.56 203.30
  A 1.11 1.11 0.0 0 0 314.56 204.65
  C 315.95 204.74 317.60 204.64 319.03 204.24
  C 334.77 199.95 346.56 197.88 365.85 193.52
  C 381.93 189.89 393.45 186.11 409.83 181.60
  Q 412.76 180.79 416.73 180.21
  A 21.33 20.68 30.4 0 0 420.57 179.27
  L 443.08 171.43
  A 0.68 0.68 0.0 0 0 443.04 170.13
  C 429.65 166.40 414.54 166.73 400.75 168.42
  C 392.67 169.41 388.45 169.25 380.19 170.81
  Q 376.25 171.56 370.48 171.54
  A 0.20 0.20 0.0 0 1 370.35 171.19
  C 373.99 168.09 376.38 164.06 379.55 160.57
  Q 385.68 153.82 390.78 148.94
  Q 397.31 142.69 401.78 137.14
  Q 411.67 124.86 412.01 124.47
  C 414.53 121.56 416.67 117.97 419.36 114.15
  A 2.06 2.05 -79.5 0 0 417.18 110.97"
/>
<path stroke="#ebdc33" vector-effect="non-scaling-stroke" d="
  M 139.67 164.65
  Q 137.99 167.69 137.68 170.80
  A 0.72 0.72 0.0 0 0 138.47 171.59
  Q 141.98 171.26 145.62 170.95
  Q 148.42 170.71 150.66 172.10
  A 0.55 0.55 0.0 0 1 150.31 173.11
  Q 143.61 172.36 135.17 173.10
  Q 126.46 173.85 110.92 174.96
  Q 104.39 175.42 98.60 177.51
  A 1.02 1.02 0.0 0 0 98.54 179.41
  Q 117.26 187.56 136.03 193.54
  C 141.11 195.16 145.09 195.91 149.75 197.18
  Q 154.51 198.47 160.21 199.01
  C 173.10 200.23 180.88 201.12 194.19 200.94
  Q 196.65 200.90 211.75 201.99
  Q 216.34 202.31 219.70 201.10
  A 1.15 1.15 0.0 0 0 220.29 199.42
  C 217.58 194.97 214.04 190.15 211.52 185.35
  Q 207.86 178.36 206.44 176.32
  Q 199.81 166.78 186.01 145.00
  Q 176.12 129.39 158.48 123.86
  Q 155.20 122.83 151.34 122.85
  A 1.17 1.16 -14.0 0 0 150.31 124.56
  L 158.40 139.89
  A 1.40 1.39 27.9 0 1 158.56 140.40
  L 158.82 142.78
  A 1.40 1.39 3.6 0 1 157.10 144.29
  C 150.76 142.74 145.39 139.43 137.62 135.39
  C 133.55 133.28 129.22 130.22 124.89 128.22
  C 119.38 125.68 112.93 121.58 108.25 119.05
  Q 102.68 116.05 96.65 116.01
  A 1.87 1.87 0.0 0 0 95.02 118.83
  Q 98.87 125.36 106.57 134.94
  C 110.83 140.24 115.66 143.15 120.20 147.98
  C 126.51 154.71 131.89 158.81 139.50 163.92
  A 0.56 0.55 -58.7 0 1 139.67 164.65"
/>
<path stroke="#ebdc33" vector-effect="non-scaling-stroke" d="
  M 362.45 386.61
  C 362.89 383.65 362.10 380.66 361.97 377.73
  Q 361.50 367.25 361.51 366.39
  Q 361.51 360.38 360.90 355.10
  Q 359.22 340.76 359.01 320.13
  C 358.96 315.59 358.54 309.52 357.73 304.03
  Q 357.04 299.31 353.13 296.62
  C 348.45 293.39 342.74 288.63 337.02 285.22
  Q 334.54 283.73 331.32 280.93
  Q 327.95 278.00 321.11 273.63
  Q 318.11 271.72 314.04 267.86
  A 2.22 2.18 -13.2 0 0 313.20 267.35
  Q 309.25 266.06 307.92 270.17
  C 306.56 274.41 305.31 278.11 304.46 282.47
  C 303.12 289.43 302.60 292.63 301.17 297.63
  Q 300.05 301.55 299.70 304.76
  C 298.94 311.79 298.18 315.11 296.82 324.69
  C 296.49 326.96 296.54 328.71 296.28 331.20
  A 3.47 3.44 -64.7 0 0 297.27 334.00
  C 302.34 339.09 305.50 343.30 310.76 346.23
  A 10.29 10.27 84.9 0 1 313.65 348.65
  Q 316.89 352.60 320.28 354.70
  C 323.37 356.62 325.06 359.96 328.43 361.65
  C 333.26 364.06 335.75 369.08 340.89 372.09
  A 10.52 10.06 -6.3 0 1 342.94 373.66
  C 346.57 377.27 349.54 379.11 352.61 382.59
  C 354.37 384.57 358.18 387.45 361.30 387.56
  A 1.12 1.12 0.0 0 0 362.45 386.61"
/>
<path stroke="#ebdc33" vector-effect="non-scaling-stroke" d="
  M 142.15 364.20
  Q 145.18 364.00 148.39 362.88
  C 154.54 360.73 162.45 356.65 169.34 354.37
  Q 174.85 352.55 180.72 350.00
  Q 186.52 347.47 187.90 345.87
  Q 190.02 343.39 190.40 341.44
  Q 193.26 326.41 194.43 309.17
  C 194.98 301.14 194.79 295.19 195.99 287.01
  C 196.92 280.58 197.24 276.80 196.90 272.43
  A 1.29 1.29 0.0 0 0 194.86 271.49
  Q 183.32 279.95 176.80 284.27
  C 168.24 289.93 160.19 296.58 152.89 301.66
  C 146.41 306.18 142.87 310.15 141.78 317.36
  Q 140.73 324.24 140.57 333.54
  Q 140.31 348.10 141.23 363.39
  A 0.87 0.86 -3.3 0 0 142.15 364.20"
/>
</g>
<path fill="#2d76f7" d="
  M 320.83 107.25
  Q 318.80 109.43 317.11 112.48
  Q 315.24 115.84 314.84 116.51
  Q 305.41 132.15 295.84 148.03
  Q 279.51 175.10 271.61 186.66
  Q 266.76 193.77 266.20 194.57
  A 0.45 0.45 0.0 0 1 265.51 194.63
  Q 260.49 189.52 256.71 185.41
  C 254.01 182.46 252.31 179.81 249.83 177.82
  C 248.65 176.87 247.05 174.68 246.33 173.78
  Q 244.99 172.10 243.67 170.75
  Q 233.06 159.95 224.20 148.41
  C 220.90 144.10 217.56 141.42 214.20 137.00
  C 210.19 131.72 205.46 127.34 201.90 122.45
  Q 198.15 117.30 194.91 113.98
  C 190.72 109.70 186.64 103.73 183.19 99.57
  Q 182.16 98.31 180.17 96.46
  Q 176.83 90.51 173.63 87.11
  Q 169.12 82.33 165.99 78.02
  Q 162.04 72.58 161.96 72.48
  Q 151.15 58.52 149.23 56.05
  Q 148.01 54.49 146.73 53.01
  Q 145.53 51.62 140.10 44.51
  A 0.93 0.93 0.0 0 1 140.77 43.01
  Q 146.66 42.60 156.25 42.46
  C 158.67 42.42 160.10 43.19 161.73 45.13
  C 165.33 49.40 167.77 52.94 171.68 57.82
  Q 184.47 73.79 189.84 81.00
  Q 194.29 86.98 196.38 89.30
  Q 197.10 90.10 226.12 127.79
  C 235.51 139.97 244.21 150.36 255.84 165.07
  C 258.23 168.08 260.34 171.37 263.24 174.01
  A 1.71 1.70 -53.2 0 0 265.85 173.63
  Q 274.30 159.57 280.98 148.59
  Q 291.20 131.79 295.76 123.36
  Q 296.78 121.47 330.43 61.47
  C 335.89 51.73 339.71 43.72 344.88 34.13
  Q 345.63 32.74 348.57 32.60
  Q 353.99 32.35 363.33 31.80
  Q 363.90 31.77 364.00 32.33
  Q 364.08 32.81 363.79 33.30
  Q 357.39 44.21 353.53 50.56
  Q 336.54 78.49 321.07 105.59
  Q 320.77 106.10 320.83 107.25
  Z"
/>
<path fill="#b8d1ec" d="
  M 180.17 96.46
  Q 182.16 98.31 183.19 99.57
  C 186.64 103.73 190.72 109.70 194.91 113.98
  Q 198.15 117.30 201.90 122.45
  C 205.46 127.34 210.19 131.72 214.20 137.00
  C 217.56 141.42 220.90 144.10 224.20 148.41
  Q 233.06 159.95 243.67 170.75
  Q 244.99 172.10 246.33 173.78
  C 247.05 174.68 248.65 176.87 249.83 177.82
  C 252.31 179.81 254.01 182.46 256.71 185.41
  Q 260.49 189.52 265.51 194.63
  A 0.45 0.45 0.0 0 0 266.20 194.57
  Q 266.76 193.77 271.61 186.66
  Q 279.51 175.10 295.84 148.03
  Q 305.41 132.15 314.84 116.51
  Q 315.24 115.84 317.11 112.48
  Q 318.80 109.43 320.83 107.25
  Q 325.83 103.44 330.61 99.60
  C 348.65 85.08 370.19 73.74 391.76 65.29
  Q 406.07 59.69 426.82 51.82
  Q 433.78 49.18 439.50 47.75
  Q 454.67 43.94 463.79 42.28
  C 467.01 41.70 469.84 42.50 473.51 43.96
  Q 484.22 48.23 488.61 57.86
  Q 492.52 66.42 492.76 77.50
  Q 492.93 84.87 492.87 105.66
  C 492.78 133.32 489.77 162.59 483.70 187.23
  Q 479.05 206.08 468.38 222.37
  Q 466.25 225.64 463.27 227.53
  Q 449.44 236.36 432.91 242.29
  A 13.92 13.54 -57.8 0 1 429.96 243.00
  Q 414.47 245.01 398.50 243.95
  C 373.06 242.26 353.87 240.11 323.01 236.71
  Q 321.89 236.59 316.60 236.34
  A 1.06 1.06 0.0 0 0 315.88 238.22
  Q 318.28 240.19 325.15 244.35
  Q 350.74 259.82 357.02 263.72
  C 360.10 265.64 362.90 268.76 365.07 272.18
  Q 381.60 298.20 384.22 302.77
  Q 388.09 309.51 389.28 317.98
  Q 390.58 327.32 392.11 341.91
  C 394.28 362.74 393.83 383.28 390.54 403.50
  Q 389.75 408.39 386.73 416.21
  C 384.00 423.29 377.86 430.02 372.63 435.37
  Q 366.45 441.70 360.55 446.97
  A 2.51 2.51 0.0 0 1 358.06 447.47
  Q 355.58 446.63 353.90 445.34
  Q 342.93 436.90 331.55 426.45
  Q 330.02 425.04 327.95 422.55
  Q 317.40 409.85 302.56 389.45
  C 291.63 374.41 281.29 358.86 273.70 342.58
  C 270.70 336.14 266.72 329.77 263.46 325.35
  A 0.47 0.46 29.5 0 0 262.62 325.58
  Q 262.32 328.71 262.65 332.09
  C 263.05 336.20 262.31 339.26 262.44 343.36
  Q 263.38 372.20 260.70 398.00
  Q 255.93 443.94 254.98 456.01
  C 254.69 459.66 253.85 462.57 249.80 462.77
  Q 246.92 462.92 245.80 462.63
  A 2.82 2.81 3.6 0 1 243.72 460.28
  C 242.62 452.26 242.70 441.82 242.17 432.62
  Q 239.40 385.30 241.37 337.00
  Q 241.54 332.59 241.60 322.79
  A 0.71 0.71 0.0 0 0 240.64 322.12
  C 239.05 322.73 237.71 325.67 235.09 329.50
  Q 233.23 332.23 231.02 336.02
  Q 225.06 346.21 220.31 353.57
  Q 202.10 381.77 191.88 396.11
  Q 188.30 401.13 180.82 408.32
  Q 172.04 416.75 162.74 423.99
  Q 156.37 428.95 152.91 430.65
  C 149.55 432.30 141.42 428.69 139.15 425.29
  Q 134.09 417.70 122.44 400.38
  A 11.45 11.35 -70.4 0 1 120.94 397.18
  C 118.70 389.65 114.69 380.68 114.50 372.30
  Q 113.87 345.10 115.81 326.00
  Q 116.99 314.44 124.59 303.55
  Q 137.26 285.38 154.94 267.93
  Q 165.58 257.43 179.47 243.72
  Q 186.42 236.87 200.51 225.49
  Q 201.67 224.55 201.81 223.84
  A 1.59 1.58 -84.9 0 0 200.24 221.96
  Q 192.95 222.01 177.35 223.63
  C 160.77 225.36 144.72 224.67 128.74 223.06
  Q 120.01 222.18 103.24 218.48
  Q 83.91 214.23 61.51 210.05
  C 51.46 208.18 44.18 205.24 35.28 200.68
  C 29.32 197.63 26.05 196.71 25.76 190.02
  Q 25.30 179.20 25.70 168.00
  Q 26.90 134.83 29.96 96.00
  Q 31.50 76.44 38.86 59.36
  C 42.38 51.19 47.14 45.28 54.61 41.09
  C 61.15 37.43 65.86 38.99 73.42 41.46
  Q 89.09 46.59 106.51 53.76
  Q 113.73 56.74 120.30 60.49
  Q 144.26 74.19 164.24 87.24
  Q 172.86 92.86 180.17 96.46
  Z
  M 78.51 104.56
  L 83.66 90.91
  A 2.31 2.31 0.0 0 0 83.25 88.61
  C 77.87 82.38 73.98 78.25 65.74 77.13
  Q 59.92 76.33 56.61 81.07
  Q 52.79 86.52 50.33 92.65
  A 1.64 1.59 -42.4 0 0 50.27 93.64
  Q 52.12 100.94 57.51 105.45
  C 60.68 108.09 65.63 108.39 69.59 108.00
  C 72.38 107.73 75.45 105.25 77.91 105.02
  A 0.72 0.71 -81.9 0 0 78.51 104.56
  Z
  M 448.30 112.39
  C 455.38 112.71 463.39 111.60 465.18 103.40
  C 466.79 96.06 467.27 87.38 458.80 84.19
  C 453.75 82.29 444.21 80.87 440.12 85.39
  C 434.38 91.71 434.07 102.28 440.19 108.54
  Q 443.75 112.18 448.30 112.39
  Z
  M 417.18 110.97
  C 413.02 112.03 409.51 113.18 405.34 115.38
  C 400.21 118.10 398.36 119.23 393.59 121.11
  Q 386.63 123.84 384.61 125.10
  Q 371.25 133.38 370.35 133.88
  C 366.14 136.24 363.17 139.40 359.47 142.23
  A 0.85 0.84 -14.5 0 1 358.12 141.44
  C 358.65 138.02 359.24 135.56 361.13 132.31
  Q 365.83 124.21 369.19 113.05
  A 0.72 0.71 87.0 0 0 368.23 112.18
  Q 360.89 115.25 354.95 121.22
  Q 352.10 124.10 349.93 126.02
  C 344.79 130.56 341.11 137.00 337.90 143.13
  C 330.82 156.68 325.11 168.80 320.48 182.78
  C 318.47 188.85 315.15 196.13 313.56 203.30
  A 1.11 1.11 0.0 0 0 314.56 204.65
  C 315.95 204.74 317.60 204.64 319.03 204.24
  C 334.77 199.95 346.56 197.88 365.85 193.52
  C 381.93 189.89 393.45 186.11 409.83 181.60
  Q 412.76 180.79 416.73 180.21
  A 21.33 20.68 30.4 0 0 420.57 179.27
  L 443.08 171.43
  A 0.68 0.68 0.0 0 0 443.04 170.13
  C 429.65 166.40 414.54 166.73 400.75 168.42
  C 392.67 169.41 388.45 169.25 380.19 170.81
  Q 376.25 171.56 370.48 171.54
  A 0.20 0.20 0.0 0 1 370.35 171.19
  C 373.99 168.09 376.38 164.06 379.55 160.57
  Q 385.68 153.82 390.78 148.94
  Q 397.31 142.69 401.78 137.14
  Q 411.67 124.86 412.01 124.47
  C 414.53 121.56 416.67 117.97 419.36 114.15
  A 2.06 2.05 -79.5 0 0 417.18 110.97
  Z
  M 139.67 164.65
  Q 137.99 167.69 137.68 170.80
  A 0.72 0.72 0.0 0 0 138.47 171.59
  Q 141.98 171.26 145.62 170.95
  Q 148.42 170.71 150.66 172.10
  A 0.55 0.55 0.0 0 1 150.31 173.11
  Q 143.61 172.36 135.17 173.10
  Q 126.46 173.85 110.92 174.96
  Q 104.39 175.42 98.60 177.51
  A 1.02 1.02 0.0 0 0 98.54 179.41
  Q 117.26 187.56 136.03 193.54
  C 141.11 195.16 145.09 195.91 149.75 197.18
  Q 154.51 198.47 160.21 199.01
  C 173.10 200.23 180.88 201.12 194.19 200.94
  Q 196.65 200.90 211.75 201.99
  Q 216.34 202.31 219.70 201.10
  A 1.15 1.15 0.0 0 0 220.29 199.42
  C 217.58 194.97 214.04 190.15 211.52 185.35
  Q 207.86 178.36 206.44 176.32
  Q 199.81 166.78 186.01 145.00
  Q 176.12 129.39 158.48 123.86
  Q 155.20 122.83 151.34 122.85
  A 1.17 1.16 -14.0 0 0 150.31 124.56
  L 158.40 139.89
  A 1.40 1.39 27.9 0 1 158.56 140.40
  L 158.82 142.78
  A 1.40 1.39 3.6 0 1 157.10 144.29
  C 150.76 142.74 145.39 139.43 137.62 135.39
  C 133.55 133.28 129.22 130.22 124.89 128.22
  C 119.38 125.68 112.93 121.58 108.25 119.05
  Q 102.68 116.05 96.65 116.01
  A 1.87 1.87 0.0 0 0 95.02 118.83
  Q 98.87 125.36 106.57 134.94
  C 110.83 140.24 115.66 143.15 120.20 147.98
  C 126.51 154.71 131.89 158.81 139.50 163.92
  A 0.56 0.55 -58.7 0 1 139.67 164.65
  Z
  M 362.45 386.61
  C 362.89 383.65 362.10 380.66 361.97 377.73
  Q 361.50 367.25 361.51 366.39
  Q 361.51 360.38 360.90 355.10
  Q 359.22 340.76 359.01 320.13
  C 358.96 315.59 358.54 309.52 357.73 304.03
  Q 357.04 299.31 353.13 296.62
  C 348.45 293.39 342.74 288.63 337.02 285.22
  Q 334.54 283.73 331.32 280.93
  Q 327.95 278.00 321.11 273.63
  Q 318.11 271.72 314.04 267.86
  A 2.22 2.18 -13.2 0 0 313.20 267.35
  Q 309.25 266.06 307.92 270.17
  C 306.56 274.41 305.31 278.11 304.46 282.47
  C 303.12 289.43 302.60 292.63 301.17 297.63
  Q 300.05 301.55 299.70 304.76
  C 298.94 311.79 298.18 315.11 296.82 324.69
  C 296.49 326.96 296.54 328.71 296.28 331.20
  A 3.47 3.44 -64.7 0 0 297.27 334.00
  C 302.34 339.09 305.50 343.30 310.76 346.23
  A 10.29 10.27 84.9 0 1 313.65 348.65
  Q 316.89 352.60 320.28 354.70
  C 323.37 356.62 325.06 359.96 328.43 361.65
  C 333.26 364.06 335.75 369.08 340.89 372.09
  A 10.52 10.06 -6.3 0 1 342.94 373.66
  C 346.57 377.27 349.54 379.11 352.61 382.59
  C 354.37 384.57 358.18 387.45 361.30 387.56
  A 1.12 1.12 0.0 0 0 362.45 386.61
  Z
  M 142.15 364.20
  Q 145.18 364.00 148.39 362.88
  C 154.54 360.73 162.45 356.65 169.34 354.37
  Q 174.85 352.55 180.72 350.00
  Q 186.52 347.47 187.90 345.87
  Q 190.02 343.39 190.40 341.44
  Q 193.26 326.41 194.43 309.17
  C 194.98 301.14 194.79 295.19 195.99 287.01
  C 196.92 280.58 197.24 276.80 196.90 272.43
  A 1.29 1.29 0.0 0 0 194.86 271.49
  Q 183.32 279.95 176.80 284.27
  C 168.24 289.93 160.19 296.58 152.89 301.66
  C 146.41 306.18 142.87 310.15 141.78 317.36
  Q 140.73 324.24 140.57 333.54
  Q 140.31 348.10 141.23 363.39
  A 0.87 0.86 -3.3 0 0 142.15 364.20
  Z"
/>
<path fill="#ea5831" d="
  M 77.91 105.02
  C 75.45 105.25 72.38 107.73 69.59 108.00
  C 65.63 108.39 60.68 108.09 57.51 105.45
  Q 52.12 100.94 50.27 93.64
  A 1.64 1.59 -42.4 0 1 50.33 92.65
  Q 52.79 86.52 56.61 81.07
  Q 59.92 76.33 65.74 77.13
  C 73.98 78.25 77.87 82.38 83.25 88.61
  A 2.31 2.31 0.0 0 1 83.66 90.91
  L 78.51 104.56
  A 0.72 0.71 -81.9 0 1 77.91 105.02
  Z"
/>
<path fill="#ea5831" d="
  M 465.18 103.40
  C 463.39 111.60 455.38 112.71 448.30 112.39
  Q 443.75 112.18 440.19 108.54
  C 434.07 102.28 434.38 91.71 440.12 85.39
  C 444.21 80.87 453.75 82.29 458.80 84.19
  C 467.27 87.38 466.79 96.06 465.18 103.40
  Z"
/>
<path fill="#ea5831" d="
  M 417.18 110.97
  A 2.06 2.05 -79.5 0 1 419.36 114.15
  C 416.67 117.97 414.53 121.56 412.01 124.47
  Q 411.67 124.86 401.78 137.14
  Q 397.31 142.69 390.78 148.94
  Q 385.68 153.82 379.55 160.57
  C 376.38 164.06 373.99 168.09 370.35 171.19
  A 0.20 0.20 0.0 0 0 370.48 171.54
  Q 376.25 171.56 380.19 170.81
  C 388.45 169.25 392.67 169.41 400.75 168.42
  C 414.54 166.73 429.65 166.40 443.04 170.13
  A 0.68 0.68 0.0 0 1 443.08 171.43
  L 420.57 179.27
  A 21.33 20.68 30.4 0 1 416.73 180.21
  Q 412.76 180.79 409.83 181.60
  C 393.45 186.11 381.93 189.89 365.85 193.52
  C 346.56 197.88 334.77 199.95 319.03 204.24
  C 317.60 204.64 315.95 204.74 314.56 204.65
  A 1.11 1.11 0.0 0 1 313.56 203.30
  C 315.15 196.13 318.47 188.85 320.48 182.78
  C 325.11 168.80 330.82 156.68 337.90 143.13
  C 341.11 137.00 344.79 130.56 349.93 126.02
  Q 352.10 124.10 354.95 121.22
  Q 360.89 115.25 368.23 112.18
  A 0.72 0.71 87.0 0 1 369.19 113.05
  Q 365.83 124.21 361.13 132.31
  C 359.24 135.56 358.65 138.02 358.12 141.44
  A 0.85 0.84 -14.5 0 0 359.47 142.23
  C 363.17 139.40 366.14 136.24 370.35 133.88
  Q 371.25 133.38 384.61 125.10
  Q 386.63 123.84 393.59 121.11
  C 398.36 119.23 400.21 118.10 405.34 115.38
  C 409.51 113.18 413.02 112.03 417.18 110.97
  Z"
/>
<path fill="#ea5831" d="
  M 139.50 163.92
  C 131.89 158.81 126.51 154.71 120.20 147.98
  C 115.66 143.15 110.83 140.24 106.57 134.94
  Q 98.87 125.36 95.02 118.83
  A 1.87 1.87 0.0 0 1 96.65 116.01
  Q 102.68 116.05 108.25 119.05
  C 112.93 121.58 119.38 125.68 124.89 128.22
  C 129.22 130.22 133.55 133.28 137.62 135.39
  C 145.39 139.43 150.76 142.74 157.10 144.29
  A 1.40 1.39 3.6 0 0 158.82 142.78
  L 158.56 140.40
  A 1.40 1.39 27.9 0 0 158.40 139.89
  L 150.31 124.56
  A 1.17 1.16 -14.0 0 1 151.34 122.85
  Q 155.20 122.83 158.48 123.86
  Q 176.12 129.39 186.01 145.00
  Q 199.81 166.78 206.44 176.32
  Q 207.86 178.36 211.52 185.35
  C 214.04 190.15 217.58 194.97 220.29 199.42
  A 1.15 1.15 0.0 0 1 219.70 201.10
  Q 216.34 202.31 211.75 201.99
  Q 196.65 200.90 194.19 200.94
  C 180.88 201.12 173.10 200.23 160.21 199.01
  Q 154.51 198.47 149.75 197.18
  C 145.09 195.91 141.11 195.16 136.03 193.54
  Q 117.26 187.56 98.54 179.41
  A 1.02 1.02 0.0 0 1 98.60 177.51
  Q 104.39 175.42 110.92 174.96
  Q 126.46 173.85 135.17 173.10
  Q 143.61 172.36 150.31 173.11
  A 0.55 0.55 0.0 0 0 150.66 172.10
  Q 148.42 170.71 145.62 170.95
  Q 141.98 171.26 138.47 171.59
  A 0.72 0.72 0.0 0 1 137.68 170.80
  Q 137.99 167.69 139.67 164.65
  A 0.56 0.55 -58.7 0 0 139.50 163.92
  Z"
/>
<path fill="#ea5831" d="
  M 362.45 386.61
  A 1.12 1.12 0.0 0 1 361.30 387.56
  C 358.18 387.45 354.37 384.57 352.61 382.59
  C 349.54 379.11 346.57 377.27 342.94 373.66
  A 10.52 10.06 -6.3 0 0 340.89 372.09
  C 335.75 369.08 333.26 364.06 328.43 361.65
  C 325.06 359.96 323.37 356.62 320.28 354.70
  Q 316.89 352.60 313.65 348.65
  A 10.29 10.27 84.9 0 0 310.76 346.23
  C 305.50 343.30 302.34 339.09 297.27 334.00
  A 3.47 3.44 -64.7 0 1 296.28 331.20
  C 296.54 328.71 296.49 326.96 296.82 324.69
  C 298.18 315.11 298.94 311.79 299.70 304.76
  Q 300.05 301.55 301.17 297.63
  C 302.60 292.63 303.12 289.43 304.46 282.47
  C 305.31 278.11 306.56 274.41 307.92 270.17
  Q 309.25 266.06 313.20 267.35
  A 2.22 2.18 -13.2 0 1 314.04 267.86
  Q 318.11 271.72 321.11 273.63
  Q 327.95 278.00 331.32 280.93
  Q 334.54 283.73 337.02 285.22
  C 342.74 288.63 348.45 293.39 353.13 296.62
  Q 357.04 299.31 357.73 304.03
  C 358.54 309.52 358.96 315.59 359.01 320.13
  Q 359.22 340.76 360.90 355.10
  Q 361.51 360.38 361.51 366.39
  Q 361.50 367.25 361.97 377.73
  C 362.10 380.66 362.89 383.65 362.45 386.61
  Z"
/>
<path fill="#ea5831" d="
  M 142.15 364.20
  A 0.87 0.86 -3.3 0 1 141.23 363.39
  Q 140.31 348.10 140.57 333.54
  Q 140.73 324.24 141.78 317.36
  C 142.87 310.15 146.41 306.18 152.89 301.66
  C 160.19 296.58 168.24 289.93 176.80 284.27
  Q 183.32 279.95 194.86 271.49
  A 1.29 1.29 0.0 0 1 196.90 272.43
  C 197.24 276.80 196.92 280.58 195.99 287.01
  C 194.79 295.19 194.98 301.14 194.43 309.17
  Q 193.26 326.41 190.40 341.44
  Q 190.02 343.39 187.90 345.87
  Q 186.52 347.47 180.72 350.00
  Q 174.85 352.55 169.34 354.37
  C 162.45 356.65 154.54 360.73 148.39 362.88
  Q 145.18 364.00 142.15 364.20
  Z"
/>
</svg>
