<?xml version="1.0" encoding="UTF-8" standalone="no"?>
<!DOCTYPE svg PUBLIC "-//W3C//DTD SVG 1.1//EN" "http://www.w3.org/Graphics/SVG/1.1/DTD/svg11.dtd">
<svg xmlns="http://www.w3.org/2000/svg" version="1.1" viewBox="0.00 0.00 433.00 577.00">
<g stroke-width="2.00" fill="none" stroke-linecap="butt">
<path stroke="#8ecad5" vector-effect="non-scaling-stroke" d="
  M 382.00 184.57
  Q 379.34 183.01 378.06 182.67
  Q 366.86 179.65 355.99 180.16
  Q 342.02 180.82 336.88 181.10
  C 334.53 181.23 332.87 181.48 331.17 183.42
  Q 328.17 186.85 323.62 190.30
  A 6.63 6.52 -88.2 0 0 322.52 191.35
  C 318.46 196.17 316.76 197.71 313.91 202.27
  Q 311.78 205.66 309.19 207.21
  C 307.19 208.41 307.18 210.18 307.67 212.14
  A 2.30 2.28 -3.6 0 0 309.64 213.86
  C 319.41 214.93 328.29 214.86 345.26 215.12
  C 352.77 215.23 364.36 215.77 374.00 215.31"
/>
<path stroke="#74756a" vector-effect="non-scaling-stroke" d="
  M 330.15 285.82
  Q 325.38 286.54 318.00 285.72
  Q 310.02 284.83 298.51 285.78
  Q 283.51 287.02 283.06 287.09
  Q 279.99 287.57 278.23 288.96
  Q 271.63 294.15 263.48 302.18
  A 8.28 8.11 85.0 0 0 262.38 303.52
  Q 257.52 310.83 252.62 315.79
  C 249.19 319.27 246.97 323.22 245.10 327.07
  Q 241.47 334.57 237.92 342.20"
/>
<path stroke="#74756a" vector-effect="non-scaling-stroke" d="
  M 228.02 299.74
  L 225.32 263.31"
/>
<path stroke="#74756a" vector-effect="non-scaling-stroke" d="
  M 332.49 291.55
  Q 328.73 300.11 325.00 308.74
  Q 322.34 314.90 319.72 319.24
  Q 316.22 325.03 314.17 330.32
  A 9.34 8.83 -18.8 0 1 313.15 332.25
  C 304.67 344.49 295.06 355.15 285.04 365.42
  C 282.82 367.70 280.43 369.04 278.45 371.26
  Q 277.11 372.76 273.52 375.69
  Q 270.78 377.92 260.25 387.49
  Q 257.69 389.81 253.88 390.82"
/>
<path stroke="#74756a" vector-effect="non-scaling-stroke" d="
  M 209.91 267.71
  Q 209.82 268.20 209.85 268.92
  Q 209.87 269.57 209.77 270.10
  Q 207.37 282.95 209.19 296.17"
/>
<path stroke="#74756a" vector-effect="non-scaling-stroke" d="
  M 199.50 341.44
  Q 192.51 334.32 190.86 331.64
  Q 185.85 323.50 181.06 318.43
  Q 174.05 311.03 171.62 308.48
  C 164.87 301.43 159.49 297.32 151.27 293.30
  A 11.17 10.93 -28.0 0 0 147.63 292.23
  Q 139.68 291.32 131.58 292.29
  Q 125.57 293.01 121.32 293.33
  Q 113.22 293.92 105.42 294.55"
/>
<path stroke="#8ecad5" vector-effect="non-scaling-stroke" d="
  M 50.67 221.23
  Q 64.24 221.43 77.50 221.17
  Q 89.22 220.93 101.00 220.85
  Q 111.50 220.78 119.89 218.97
  A 1.53 1.53 0.0 0 0 121.02 217.97
  Q 121.75 215.85 120.24 213.98
  Q 118.20 211.45 116.38 209.14
  A 14.11 14.00 -0.2 0 0 113.81 206.61
  Q 105.58 200.38 99.23 194.02
  Q 95.75 190.53 93.72 189.66
  C 88.06 187.23 82.62 187.55 75.29 187.41
  Q 71.20 187.34 63.72 188.06
  Q 57.06 188.70 48.25 189.03
  Q 45.98 189.11 42.24 190.42"
/>
<path stroke="#74756a" vector-effect="non-scaling-stroke" d="
  M 189.43 387.35
  Q 184.01 385.18 178.77 382.73
  Q 173.38 380.20 168.75 376.99
  Q 166.29 375.29 160.69 371.74
  C 158.08 370.09 154.78 368.61 152.28 366.50
  Q 136.74 353.36 123.34 336.99
  Q 119.21 331.93 114.28 324.20
  Q 109.12 316.12 105.71 311.06
  Q 102.83 306.80 100.67 301.89"
/>
<path stroke="#8ecad5" vector-effect="non-scaling-stroke" d="
  M 328.0791 182.0397
  A 1.44 0.89 -2.0 0 0 326.6089 181.2005
  A 1.44 0.89 -2.0 0 0 325.2009 182.1403
  A 1.44 0.89 -2.0 0 0 326.6711 182.9795
  A 1.44 0.89 -2.0 0 0 328.0791 182.0397"
/>
<path stroke="#f37f6a" vector-effect="non-scaling-stroke" d="
  M 322.85 224.98
  Q 317.53 224.72 312.06 228.57
  Q 301.54 235.99 300.01 248.00
  C 299.57 251.40 299.13 254.89 300.23 258.01
  Q 302.25 263.69 305.74 270.53
  C 308.51 275.95 314.43 278.71 320.42 279.16
  C 323.09 279.36 329.88 279.41 332.52 278.27
  C 339.83 275.09 347.64 273.17 351.06 265.71
  Q 352.29 263.03 353.25 261.69
  C 356.79 256.74 359.08 246.81 357.09 241.08
  C 355.75 237.23 352.84 233.56 350.61 230.15
  C 348.25 226.55 345.02 225.39 340.45 225.08
  C 333.37 224.61 329.26 224.07 323.63 224.94
  A 4.06 3.34 36.5 0 1 322.85 224.98"
/>
<path stroke="#74756a" vector-effect="non-scaling-stroke" d="
  M 104.6555 190.5096
  A 0.91 0.81 -5.7 0 0 103.6696 189.7940
  A 0.91 0.81 -5.7 0 0 102.8445 190.6904
  A 0.91 0.81 -5.7 0 0 103.8304 191.4060
  A 0.91 0.81 -5.7 0 0 104.6555 190.5096"
/>
<path stroke="#8ecad5" vector-effect="non-scaling-stroke" d="
  M 115.3535 199.3520
  A 0.49 0.35 -158.7 0 0 115.6829 199.8561
  A 0.49 0.35 -158.7 0 0 116.2665 199.7080
  A 0.49 0.35 -158.7 0 0 115.9371 199.2039
  A 0.49 0.35 -158.7 0 0 115.3535 199.3520"
/>
<path stroke="#f37f6a" vector-effect="non-scaling-stroke" d="
  M 95.73 229.92
  Q 87.48 230.87 82.03 235.78
  Q 72.55 244.33 72.05 256.59
  Q 71.85 261.55 73.69 266.15
  C 76.69 273.66 78.62 280.12 86.63 282.93
  C 93.93 285.48 100.96 284.88 108.09 281.78
  Q 113.02 279.64 115.79 278.87
  A 3.25 3.23 17.7 0 0 116.98 278.26
  C 120.96 275.07 123.55 270.74 126.23 266.21
  Q 130.41 259.17 130.23 250.01
  Q 130.16 246.59 129.14 244.92
  C 125.90 239.61 120.71 231.55 114.13 230.66
  Q 105.20 229.45 102.99 229.33
  Q 101.54 229.25 95.73 229.92"
/>
</g>
<path fill="#e7e9d3" d="
  M 382.00 184.57
  Q 379.34 183.01 378.06 182.67
  Q 366.86 179.65 355.99 180.16
  Q 342.02 180.82 336.88 181.10
  C 334.53 181.23 332.87 181.48 331.17 183.42
  Q 328.17 186.85 323.62 190.30
  A 6.63 6.52 -88.2 0 0 322.52 191.35
  C 318.46 196.17 316.76 197.71 313.91 202.27
  Q 311.78 205.66 309.19 207.21
  C 307.19 208.41 307.18 210.18 307.67 212.14
  A 2.30 2.28 -3.6 0 0 309.64 213.86
  C 319.41 214.93 328.29 214.86 345.26 215.12
  C 352.77 215.23 364.36 215.77 374.00 215.31
  C 370.93 226.48 367.97 238.36 364.52 248.69
  Q 360.97 259.35 357.83 267.59
  C 355.45 273.85 351.89 280.33 345.41 282.14
  Q 337.52 284.36 336.02 284.57
  Q 331.91 285.17 330.15 285.82
  Q 325.38 286.54 318.00 285.72
  Q 310.02 284.83 298.51 285.78
  Q 283.51 287.02 283.06 287.09
  Q 279.99 287.57 278.23 288.96
  Q 271.63 294.15 263.48 302.18
  A 8.28 8.11 85.0 0 0 262.38 303.52
  Q 257.52 310.83 252.62 315.79
  C 249.19 319.27 246.97 323.22 245.10 327.07
  Q 241.47 334.57 237.92 342.20
  Q 234.86 330.14 232.44 317.86
  Q 232.42 317.75 231.45 310.60
  Q 230.68 304.97 228.02 299.74
  L 225.32 263.31
  Q 231.45 259.50 234.33 254.82
  Q 239.93 245.71 245.58 236.57
  C 249.59 230.08 255.70 222.70 258.88 218.21
  C 265.30 209.15 269.28 203.45 275.83 195.34
  C 286.27 182.42 297.51 170.67 310.16 160.17
  C 323.95 148.72 342.46 143.62 360.08 142.85
  C 364.26 142.67 368.77 143.51 373.74 143.72
  Q 374.13 143.74 377.62 144.88
  C 381.63 146.20 384.15 147.82 384.56 152.49
  Q 384.95 156.87 384.70 161.25
  Q 384.02 172.93 382.00 184.57
  Z
  M 328.0791 182.0397
  A 1.44 0.89 -2.0 0 0 326.6089 181.2005
  A 1.44 0.89 -2.0 0 0 325.2009 182.1403
  A 1.44 0.89 -2.0 0 0 326.6711 182.9795
  A 1.44 0.89 -2.0 0 0 328.0791 182.0397
  Z
  M 322.85 224.98
  Q 317.53 224.72 312.06 228.57
  Q 301.54 235.99 300.01 248.00
  C 299.57 251.40 299.13 254.89 300.23 258.01
  Q 302.25 263.69 305.74 270.53
  C 308.51 275.95 314.43 278.71 320.42 279.16
  C 323.09 279.36 329.88 279.41 332.52 278.27
  C 339.83 275.09 347.64 273.17 351.06 265.71
  Q 352.29 263.03 353.25 261.69
  C 356.79 256.74 359.08 246.81 357.09 241.08
  C 355.75 237.23 352.84 233.56 350.61 230.15
  C 348.25 226.55 345.02 225.39 340.45 225.08
  C 333.37 224.61 329.26 224.07 323.63 224.94
  A 4.06 3.34 36.5 0 1 322.85 224.98
  Z"
/>
<path fill="#e7e9d3" d="
  M 209.91 267.71
  Q 209.82 268.20 209.85 268.92
  Q 209.87 269.57 209.77 270.10
  Q 207.37 282.95 209.19 296.17
  Q 207.80 298.04 207.29 300.54
  Q 202.55 324.10 199.50 341.44
  Q 192.51 334.32 190.86 331.64
  Q 185.85 323.50 181.06 318.43
  Q 174.05 311.03 171.62 308.48
  C 164.87 301.43 159.49 297.32 151.27 293.30
  A 11.17 10.93 -28.0 0 0 147.63 292.23
  Q 139.68 291.32 131.58 292.29
  Q 125.57 293.01 121.32 293.33
  Q 113.22 293.92 105.42 294.55
  Q 104.46 294.38 103.63 294.15
  Q 102.62 293.87 101.83 293.88
  Q 94.96 293.96 87.65 292.42
  Q 83.75 291.60 81.82 290.39
  Q 78.32 288.22 74.34 282.81
  C 67.12 273.00 64.38 263.54 58.75 247.66
  Q 54.14 234.64 50.67 221.23
  Q 64.24 221.43 77.50 221.17
  Q 89.22 220.93 101.00 220.85
  Q 111.50 220.78 119.89 218.97
  A 1.53 1.53 0.0 0 0 121.02 217.97
  Q 121.75 215.85 120.24 213.98
  Q 118.20 211.45 116.38 209.14
  A 14.11 14.00 -0.2 0 0 113.81 206.61
  Q 105.58 200.38 99.23 194.02
  Q 95.75 190.53 93.72 189.66
  C 88.06 187.23 82.62 187.55 75.29 187.41
  Q 71.20 187.34 63.72 188.06
  Q 57.06 188.70 48.25 189.03
  Q 45.98 189.11 42.24 190.42
  Q 40.26 180.89 38.07 171.70
  Q 36.75 166.18 37.15 160.47
  Q 37.52 155.09 42.59 153.84
  Q 47.63 152.60 52.23 152.20
  Q 69.91 150.63 87.99 152.81
  Q 93.24 153.44 96.47 154.80
  C 105.36 158.54 111.36 161.23 118.19 167.18
  Q 120.13 168.86 126.31 173.49
  Q 128.92 175.45 133.76 180.49
  C 143.57 190.72 147.91 194.68 154.37 202.94
  Q 157.01 206.32 162.22 211.77
  Q 165.28 214.98 170.31 222.15
  Q 171.89 224.38 173.38 226.19
  C 182.65 237.36 190.94 248.46 198.72 257.77
  Q 200.61 260.03 203.32 262.13
  C 205.45 263.78 207.18 266.28 209.91 267.71
  Z
  M 104.6555 190.5096
  A 0.91 0.81 -5.7 0 0 103.6696 189.7940
  A 0.91 0.81 -5.7 0 0 102.8445 190.6904
  A 0.91 0.81 -5.7 0 0 103.8304 191.4060
  A 0.91 0.81 -5.7 0 0 104.6555 190.5096
  Z
  M 115.3535 199.3520
  A 0.49 0.35 -158.7 0 0 115.6829 199.8561
  A 0.49 0.35 -158.7 0 0 116.2665 199.7080
  A 0.49 0.35 -158.7 0 0 115.9371 199.2039
  A 0.49 0.35 -158.7 0 0 115.3535 199.3520
  Z
  M 95.73 229.92
  Q 87.48 230.87 82.03 235.78
  Q 72.55 244.33 72.05 256.59
  Q 71.85 261.55 73.69 266.15
  C 76.69 273.66 78.62 280.12 86.63 282.93
  C 93.93 285.48 100.96 284.88 108.09 281.78
  Q 113.02 279.64 115.79 278.87
  A 3.25 3.23 17.7 0 0 116.98 278.26
  C 120.96 275.07 123.55 270.74 126.23 266.21
  Q 130.41 259.17 130.23 250.01
  Q 130.16 246.59 129.14 244.92
  C 125.90 239.61 120.71 231.55 114.13 230.66
  Q 105.20 229.45 102.99 229.33
  Q 101.54 229.25 95.73 229.92
  Z"
/>
<path fill="#35abd6" d="
  M 382.00 184.57
  L 374.00 215.31
  C 364.36 215.77 352.77 215.23 345.26 215.12
  C 328.29 214.86 319.41 214.93 309.64 213.86
  A 2.30 2.28 -3.6 0 1 307.67 212.14
  C 307.18 210.18 307.19 208.41 309.19 207.21
  Q 311.78 205.66 313.91 202.27
  C 316.76 197.71 318.46 196.17 322.52 191.35
  A 6.63 6.52 -88.2 0 1 323.62 190.30
  Q 328.17 186.85 331.17 183.42
  C 332.87 181.48 334.53 181.23 336.88 181.10
  Q 342.02 180.82 355.99 180.16
  Q 366.86 179.65 378.06 182.67
  Q 379.34 183.01 382.00 184.57
  Z"
/>
<ellipse fill="#35abd6" cx="0.00" cy="0.00" transform="translate(326.64,182.09) rotate(-2.0)" rx="1.44" ry="0.89"/>
<path fill="#35abd6" d="
  M 50.67 221.23
  L 42.24 190.42
  Q 45.98 189.11 48.25 189.03
  Q 57.06 188.70 63.72 188.06
  Q 71.20 187.34 75.29 187.41
  C 82.62 187.55 88.06 187.23 93.72 189.66
  Q 95.75 190.53 99.23 194.02
  Q 105.58 200.38 113.81 206.61
  A 14.11 14.00 -0.2 0 1 116.38 209.14
  Q 118.20 211.45 120.24 213.98
  Q 121.75 215.85 121.02 217.97
  A 1.53 1.53 0.0 0 1 119.89 218.97
  Q 111.50 220.78 101.00 220.85
  Q 89.22 220.93 77.50 221.17
  Q 64.24 221.43 50.67 221.23
  Z"
/>
<ellipse fill="#000000" cx="0.00" cy="0.00" transform="translate(103.75,190.60) rotate(-5.7)" rx="0.91" ry="0.81"/>
<path fill="#000000" d="
  M 225.32 263.31
  L 228.02 299.74
  Q 227.18 306.51 226.96 313.32
  Q 226.60 324.58 226.42 326.93
  Q 224.63 350.37 224.01 355.00
  Q 223.61 357.96 223.00 359.87
  A 0.89 0.89 0.0 0 1 221.38 360.04
  C 217.27 352.96 215.60 343.33 214.68 335.52
  Q 214.43 333.36 214.42 326.17
  Q 214.42 322.01 213.47 316.89
  Q 211.55 306.51 209.19 296.17
  Q 207.37 282.95 209.77 270.10
  Q 209.87 269.57 209.85 268.92
  Q 209.82 268.20 209.91 267.71
  Q 211.68 264.80 211.94 260.92
  A 1.22 1.22 0.0 0 0 211.01 259.66
  L 208.64 259.08
  A 1.86 1.85 88.6 0 1 207.29 257.79
  Q 206.15 253.77 208.89 252.59
  Q 210.85 251.75 211.22 250.92
  Q 212.37 248.39 211.96 247.07
  C 209.13 237.94 207.35 230.11 203.37 221.81
  Q 198.36 211.33 192.59 200.31
  A 1.60 1.60 0.0 0 1 193.09 198.25
  L 193.17 198.19
  A 1.23 1.23 0.0 0 1 195.00 198.71
  Q 196.89 203.09 198.50 205.97
  C 200.98 210.42 203.27 215.70 205.62 220.65
  Q 211.33 232.66 215.06 246.13
  Q 215.77 248.71 218.57 248.23
  A 0.93 0.92 8.8 0 0 219.22 247.76
  Q 223.09 240.22 224.58 234.07
  Q 225.98 228.31 228.13 223.25
  Q 233.02 211.72 236.66 205.15
  C 238.15 202.46 239.32 198.87 240.99 196.56
  A 0.86 0.86 0.0 0 1 242.55 196.99
  Q 242.85 200.40 241.23 203.50
  Q 240.27 205.34 233.14 220.05
  C 228.68 229.24 226.61 237.23 223.31 247.23
  A 1.82 1.78 -44.5 0 0 223.29 248.31
  Q 224.19 251.41 227.02 252.87
  A 1.39 1.33 5.7 0 1 227.68 253.64
  C 228.81 257.06 226.97 257.67 225.13 259.79
  A 1.75 1.73 -19.1 0 0 224.72 260.62
  Q 224.46 261.91 225.32 263.31
  Z"
/>
<ellipse fill="#35abd6" cx="0.00" cy="0.00" transform="translate(115.81,199.53) rotate(-158.7)" rx="0.49" ry="0.35"/>
<path fill="#ff1400" d="
  M 323.63 224.94
  C 329.26 224.07 333.37 224.61 340.45 225.08
  C 345.02 225.39 348.25 226.55 350.61 230.15
  C 352.84 233.56 355.75 237.23 357.09 241.08
  C 359.08 246.81 356.79 256.74 353.25 261.69
  Q 352.29 263.03 351.06 265.71
  C 347.64 273.17 339.83 275.09 332.52 278.27
  C 329.88 279.41 323.09 279.36 320.42 279.16
  C 314.43 278.71 308.51 275.95 305.74 270.53
  Q 302.25 263.69 300.23 258.01
  C 299.13 254.89 299.57 251.40 300.01 248.00
  Q 301.54 235.99 312.06 228.57
  Q 317.53 224.72 322.85 224.98
  A 4.06 3.34 36.5 0 0 323.63 224.94
  Z"
/>
<path fill="#ff1400" d="
  M 95.73 229.92
  Q 101.54 229.25 102.99 229.33
  Q 105.20 229.45 114.13 230.66
  C 120.71 231.55 125.90 239.61 129.14 244.92
  Q 130.16 246.59 130.23 250.01
  Q 130.41 259.17 126.23 266.21
  C 123.55 270.74 120.96 275.07 116.98 278.26
  A 3.25 3.23 17.7 0 1 115.79 278.87
  Q 113.02 279.64 108.09 281.78
  C 100.96 284.88 93.93 285.48 86.63 282.93
  C 78.62 280.12 76.69 273.66 73.69 266.15
  Q 71.85 261.55 72.05 256.59
  Q 72.55 244.33 82.03 235.78
  Q 87.48 230.87 95.73 229.92
  Z"
/>
<path fill="#000000" d="
  M 330.15 285.82
  Q 331.72 288.22 332.49 291.55
  Q 328.73 300.11 325.00 308.74
  Q 322.34 314.90 319.72 319.24
  Q 316.22 325.03 314.17 330.32
  A 9.34 8.83 -18.8 0 1 313.15 332.25
  C 304.67 344.49 295.06 355.15 285.04 365.42
  C 282.82 367.70 280.43 369.04 278.45 371.26
  Q 277.11 372.76 273.52 375.69
  Q 270.78 377.92 260.25 387.49
  Q 257.69 389.81 253.88 390.82
  Q 250.86 384.75 247.94 378.81
  Q 244.65 372.11 243.78 367.96
  C 242.36 361.13 241.24 354.08 239.22 347.42
  Q 238.44 344.86 237.92 342.20
  Q 241.47 334.57 245.10 327.07
  C 246.97 323.22 249.19 319.27 252.62 315.79
  Q 257.52 310.83 262.38 303.52
  A 8.28 8.11 85.0 0 1 263.48 302.18
  Q 271.63 294.15 278.23 288.96
  Q 279.99 287.57 283.06 287.09
  Q 283.51 287.02 298.51 285.78
  Q 310.02 284.83 318.00 285.72
  Q 325.38 286.54 330.15 285.82
  Z"
/>
<path fill="#e7e9d3" d="
  M 332.49 291.55
  C 334.26 294.52 336.24 297.61 337.62 300.63
  Q 340.94 307.96 344.33 315.40
  Q 346.72 320.65 346.58 326.26
  Q 346.21 341.94 342.01 357.30
  Q 337.64 373.31 331.90 391.83
  C 331.02 394.64 330.36 395.66 329.11 397.83
  A 7.78 7.70 -28.0 0 0 328.10 401.07
  Q 327.80 404.81 326.89 413.22
  Q 326.56 416.32 328.42 419.62
  Q 333.37 428.44 336.57 434.48
  Q 337.40 436.05 337.99 437.76
  A 0.93 0.92 -31.8 0 1 337.76 438.72
  Q 334.61 441.87 332.22 446.89
  C 331.84 447.68 330.59 449.04 329.83 449.63
  A 0.83 0.82 56.7 0 1 328.60 449.37
  Q 320.40 434.53 315.59 420.67
  A 1.80 1.80 0.0 0 0 314.97 419.82
  C 311.71 417.33 303.66 418.40 298.96 419.31
  Q 290.99 420.86 283.25 418.54
  Q 281.55 418.03 274.65 413.94
  A 12.20 12.01 69.2 0 0 272.32 412.87
  Q 269.60 411.95 268.74 411.27
  C 262.50 406.30 257.42 397.83 253.88 390.82
  Q 257.69 389.81 260.25 387.49
  Q 270.78 377.92 273.52 375.69
  Q 277.11 372.76 278.45 371.26
  C 280.43 369.04 282.82 367.70 285.04 365.42
  C 295.06 355.15 304.67 344.49 313.15 332.25
  A 9.34 8.83 -18.8 0 0 314.17 330.32
  Q 316.22 325.03 319.72 319.24
  Q 322.34 314.90 325.00 308.74
  Q 328.73 300.11 332.49 291.55
  Z"
/>
<path fill="#000000" d="
  M 199.50 341.44
  Q 199.45 343.09 198.84 346.83
  C 196.35 362.01 194.27 373.66 189.43 387.35
  Q 184.01 385.18 178.77 382.73
  Q 173.38 380.20 168.75 376.99
  Q 166.29 375.29 160.69 371.74
  C 158.08 370.09 154.78 368.61 152.28 366.50
  Q 136.74 353.36 123.34 336.99
  Q 119.21 331.93 114.28 324.20
  Q 109.12 316.12 105.71 311.06
  Q 102.83 306.80 100.67 301.89
  L 105.42 294.55
  Q 113.22 293.92 121.32 293.33
  Q 125.57 293.01 131.58 292.29
  Q 139.68 291.32 147.63 292.23
  A 11.17 10.93 -28.0 0 1 151.27 293.30
  C 159.49 297.32 164.87 301.43 171.62 308.48
  Q 174.05 311.03 181.06 318.43
  Q 185.85 323.50 190.86 331.64
  Q 192.51 334.32 199.50 341.44
  Z"
/>
<path fill="#e7e9d3" d="
  M 189.43 387.35
  Q 188.02 391.42 186.53 396.31
  C 185.40 400.03 183.94 403.69 180.65 406.34
  Q 177.67 408.74 169.35 417.67
  Q 165.55 421.75 159.25 422.71
  C 150.41 424.07 143.46 422.34 135.82 418.61
  A 1.89 1.89 0.0 0 0 133.34 419.38
  Q 132.27 421.30 131.75 423.01
  C 128.52 433.69 127.16 439.61 123.67 446.36
  A 2.93 2.91 -71.5 0 1 120.60 447.90
  Q 118.66 447.58 115.07 446.43
  C 111.59 445.30 109.51 443.41 111.16 439.71
  Q 118.67 422.77 121.12 415.38
  C 122.40 411.49 119.16 407.30 117.97 404.71
  Q 117.18 402.99 114.96 399.85
  Q 108.95 391.35 106.22 387.27
  C 103.27 382.85 101.37 378.94 99.61 373.52
  Q 94.58 358.10 89.03 343.48
  Q 88.47 342.01 88.15 337.85
  C 87.65 331.13 89.78 323.81 92.73 317.71
  Q 96.59 309.74 100.67 301.89
  Q 102.83 306.80 105.71 311.06
  Q 109.12 316.12 114.28 324.20
  Q 119.21 331.93 123.34 336.99
  Q 136.74 353.36 152.28 366.50
  C 154.78 368.61 158.08 370.09 160.69 371.74
  Q 166.29 375.29 168.75 376.99
  Q 173.38 380.20 178.77 382.73
  Q 184.01 385.18 189.43 387.35
  Z"
/>
</svg>
