<?xml version="1.0" encoding="UTF-8" standalone="no"?>
<!DOCTYPE svg PUBLIC "-//W3C//DTD SVG 1.1//EN" "http://www.w3.org/Graphics/SVG/1.1/DTD/svg11.dtd">
<svg xmlns="http://www.w3.org/2000/svg" version="1.1" viewBox="19 5 123 108">
<path d="
  M 67.02 112.53
  L 66.08 109.56
  A 3.65 3.42 -59.0 0 1 65.93 108.86
  Q 64.81 100.01 62.84 92.30
  C 59.81 80.41 52.58 73.90 41.18 70.10
  Q 30.40 66.50 21.59 63.01
  Q 20.55 62.59 19.31 61.54
  C 17.01 59.61 19.18 57.20 21.53 57.28
  Q 29.75 57.56 38.91 57.96
  C 46.70 58.31 59.06 56.95 60.36 46.96
  Q 61.81 35.80 56.87 25.04
  Q 52.74 16.03 51.80 14.45
  Q 51.13 13.33 51.89 11.91
  A 1.79 1.78 -56.7 0 1 54.58 11.35
  Q 56.17 12.62 57.63 14.88
  Q 62.07 21.75 62.93 23.03
  C 67.61 29.87 73.24 34.10 81.22 34.90
  C 85.01 35.27 88.44 32.03 90.19 28.71
  Q 91.98 25.30 93.41 22.64
  Q 94.31 20.96 99.05 8.86
  Q 99.25 8.36 100.47 6.51
  Q 101.37 5.17 102.57 5.30
  A 2.19 2.05 -87.1 0 1 104.38 7.45
  C 104.40 12.36 101.50 18.12 100.45 22.40
  Q 98.58 29.97 100.60 36.69
  Q 101.29 39.01 104.25 41.48
  C 107.83 44.47 114.57 44.60 118.64 43.40
  Q 126.88 40.97 138.94 35.95
  A 1.75 1.75 0.0 0 1 141.27 36.99
  L 141.30 37.07
  A 2.33 2.32 -25.9 0 1 140.35 39.80
  Q 126.88 48.36 122.21 53.19
  Q 110.91 64.87 109.47 81.24
  Q 108.93 87.44 109.62 90.07
  C 110.78 94.48 113.12 101.16 112.42 105.06
  A 0.95 0.95 0.0 0 1 110.63 105.31
  Q 107.03 98.00 104.26 92.31
  Q 101.61 86.85 99.55 84.77
  C 94.60 79.80 87.57 76.87 80.84 79.55
  C 74.29 82.17 71.43 89.88 70.52 96.52
  Q 69.39 104.84 68.63 112.36
  A 0.83 0.83 0.0 0 1 67.02 112.53
  Z
  M 41.14 63.61
  A 0.94 0.93 23.9 0 0 41.65 64.92
  Q 57.94 70.94 65.92 85.67
  A 1.43 1.43 0.0 0 0 67.98 86.17
  Q 68.44 85.86 68.88 85.14
  C 73.13 78.17 77.47 73.05 86.55 73.34
  Q 96.86 73.67 103.60 81.69
  A 1.09 1.09 0.0 0 0 105.50 81.18
  Q 105.79 79.54 106.30 74.86
  C 107.31 65.51 111.80 57.29 118.63 49.62
  Q 119.06 49.14 119.10 48.51
  A 0.79 0.79 0.0 0 0 118.21 47.68
  C 113.98 48.26 109.80 48.89 105.72 47.48
  Q 99.74 45.42 96.98 39.93
  C 95.77 37.51 95.63 34.27 94.65 32.18
  A 0.98 0.98 0.0 0 0 93.68 31.62
  Q 93.22 31.65 92.85 32.11
  Q 92.19 32.93 89.59 35.52
  C 82.36 42.72 73.17 38.46 66.10 33.55
  A 1.06 1.05 11.9 0 0 64.46 34.61
  C 65.65 40.71 65.64 49.90 61.86 54.77
  C 57.38 60.56 49.78 61.76 42.70 62.66
  Q 41.56 62.81 41.14 63.61
  Z"
/>
</svg>
