<?xml version="1.0" encoding="UTF-8" standalone="no"?>
<!DOCTYPE svg PUBLIC "-//W3C//DTD SVG 1.1//EN" "http://www.w3.org/Graphics/SVG/1.1/DTD/svg11.dtd">
<svg xmlns="http://www.w3.org/2000/svg" version="1.1" viewBox="63.00 30.00 266.00 159.00">
<path d="
  M 133.66 70.94
  C 134.33 56.17 141.31 43.89 155.03 37.95
  C 167.74 32.44 184.54 33.27 195.10 43.17
  C 204.54 52.01 203.76 65.03 198.29 75.68
  A 0.41 0.41 0.0 0 0 198.92 76.18
  C 215.24 62.68 239.26 57.27 257.65 70.53
  C 264.58 75.52 269.00 84.93 262.82 92.32
  Q 258.48 97.52 250.47 100.22
  Q 243.94 102.42 237.24 103.23
  A 0.35 0.35 0.0 0 0 237.23 103.93
  C 248.60 105.55 252.94 114.10 252.37 125.00
  C 251.58 140.22 239.66 161.13 221.78 158.52
  C 214.31 157.43 207.07 150.59 202.95 144.24
  A 0.37 0.37 0.0 0 0 202.27 144.48
  C 203.80 157.47 203.25 174.61 190.45 182.19
  C 179.45 188.71 166.29 183.10 160.18 172.32
  Q 156.12 165.14 155.82 156.65
  A 0.41 0.41 0.0 0 0 155.09 156.42
  C 142.58 172.87 120.11 191.76 97.73 185.97
  C 83.38 182.25 73.84 168.57 77.09 153.65
  C 79.03 144.72 84.99 137.17 92.22 131.50
  A 0.44 0.44 0.0 0 0 91.89 130.72
  Q 84.32 131.79 77.45 130.07
  C 61.20 126.01 57.98 109.63 66.40 96.76
  Q 74.50 84.37 90.53 84.54
  A 0.55 0.55 0.0 0 0 91.02 83.72
  C 87.06 76.63 83.83 65.94 88.15 58.47
  C 91.04 53.48 98.42 52.03 103.76 52.53
  C 115.62 53.64 127.19 60.42 133.00 71.09
  A 0.35 0.35 0.0 0 0 133.66 70.94
  Z"
/>
</svg>
