<?xml version="1.0" encoding="UTF-8" standalone="no"?>
<!DOCTYPE svg PUBLIC "-//W3C//DTD SVG 1.1//EN" "http://www.w3.org/Graphics/SVG/1.1/DTD/svg11.dtd">
<svg xmlns="http://www.w3.org/2000/svg" version="1.1" viewBox="28 65 245 205">
<path d="
  M 128.82 210.97
  Q 129.98 209.63 130.36 207.32
  Q 130.64 205.65 132.61 190.77
  Q 134.14 179.18 138.46 169.01
  C 140.67 163.82 144.66 158.48 146.59 154.43
  C 148.99 149.41 152.26 146.10 156.55 140.58
  A 5.61 5.46 2.0 0 1 157.96 139.30
  Q 160.36 137.80 162.84 135.87
  Q 164.92 134.24 163.15 132.39
  C 159.55 128.62 153.33 122.56 153.57 117.78
  C 153.97 109.50 158.52 104.89 164.32 99.79
  C 165.59 98.67 168.54 98.66 170.85 98.59
  C 175.48 98.46 179.69 99.39 183.60 102.18
  Q 185.42 103.49 187.75 104.24
  A 1.64 1.64 0.0 0 0 189.82 102.19
  Q 188.20 96.99 188.44 91.06
  C 188.62 86.74 188.44 84.93 190.01 81.19
  Q 194.95 69.46 206.40 67.45
  C 208.34 67.10 209.08 67.60 211.17 68.50
  Q 221.80 73.07 225.05 84.71
  C 226.97 91.60 225.76 98.75 225.83 106.01
  A 1.38 1.37 86.8 0 0 227.34 107.37
  C 229.79 107.13 230.80 103.78 233.10 102.55
  C 235.80 101.13 238.73 98.62 241.96 96.88
  Q 247.17 94.08 256.02 93.68
  Q 259.20 93.54 260.30 94.25
  Q 266.14 98.06 266.99 98.40
  C 268.94 99.17 269.39 102.60 269.50 105.56
  Q 269.74 112.28 267.68 116.14
  Q 265.34 120.53 261.97 126.22
  C 260.21 129.17 257.11 132.52 253.52 134.68
  Q 247.68 138.20 243.35 140.27
  A 1.67 1.66 68.6 0 0 242.48 142.28
  C 243.84 146.53 245.90 150.72 246.26 155.07
  Q 246.79 161.38 245.83 168.32
  C 245.09 173.68 243.91 175.35 240.02 179.10
  Q 236.60 182.41 235.52 182.94
  C 228.24 186.59 219.82 178.38 214.08 173.31
  Q 211.52 171.05 210.37 166.77
  Q 210.08 165.71 209.22 165.01
  A 1.73 1.73 0.0 0 0 206.65 165.45
  Q 199.98 176.27 187.83 181.06
  C 182.02 183.36 171.65 180.61 168.35 175.12
  Q 166.61 172.24 163.35 167.43
  A 3.30 3.28 -55.4 0 1 162.88 164.84
  L 164.61 157.57
  A 2.46 2.03 -30.2 0 1 164.79 157.08
  L 168.80 148.73
  A 19.26 18.85 -14.6 0 1 170.60 145.73
  L 173.60 141.63
  A 0.98 0.98 0.0 0 0 172.68 140.08
  C 168.58 140.57 164.57 142.90 161.96 146.54
  Q 161.15 147.67 156.65 152.66
  Q 155.83 153.57 153.41 158.50
  A 27.92 26.85 -15.6 0 1 151.37 161.96
  C 149.61 164.48 148.02 166.45 146.94 169.24
  Q 142.69 180.21 141.71 186.99
  Q 139.45 202.63 139.14 210.52
  C 138.80 219.43 138.23 227.13 139.22 236.88
  A 15.30 15.12 44.7 0 1 139.25 239.52
  Q 138.72 246.08 139.36 253.78
  A 11.92 11.59 46.8 0 1 139.32 256.05
  C 138.93 259.30 138.89 266.29 134.46 266.07
  Q 131.98 265.95 129.83 264.38
  C 127.27 262.51 127.68 257.77 127.57 254.26
  Q 127.51 252.23 126.51 241.31
  C 125.96 235.30 123.80 228.79 122.29 222.23
  Q 121.13 217.18 116.92 208.85
  A 14.46 14.42 -67.3 0 1 116.05 206.72
  Q 114.40 201.41 113.67 200.37
  C 110.42 195.74 107.19 190.15 102.79 186.34
  Q 99.54 183.52 95.46 180.99
  C 93.08 179.51 87.50 178.37 84.71 179.71
  A 2.43 2.30 -81.1 0 0 83.96 180.29
  Q 82.01 182.57 81.24 182.80
  Q 78.35 183.66 77.57 180.09
  Q 76.43 174.90 80.81 173.11
  Q 88.15 170.13 95.51 172.26
  Q 98.34 173.09 103.33 176.72
  C 109.92 181.53 113.49 184.40 116.97 190.34
  C 120.32 196.07 121.96 198.66 123.43 203.80
  C 124.24 206.64 125.98 208.96 127.98 210.99
  A 0.57 0.57 0.0 0 0 128.82 210.97
  Z
  M 204.06 141.67
  Q 207.30 140.27 210.70 142.04
  A 1.73 1.66 -90.0 0 1 211.46 142.83
  Q 213.22 146.57 213.07 148.28
  Q 212.72 152.19 213.23 153.52
  Q 214.51 156.92 218.53 166.10
  A 4.77 4.66 -78.0 0 0 219.29 167.30
  Q 222.94 171.53 227.59 173.89
  C 230.31 175.28 234.05 175.48 235.51 172.24
  C 238.01 166.70 237.45 161.10 236.84 154.99
  A 4.07 3.97 32.9 0 0 236.64 154.11
  C 235.49 150.96 234.57 146.59 232.40 144.05
  A 2.14 2.09 80.1 0 0 231.61 143.48
  C 228.32 142.16 224.82 141.30 223.74 139.23
  Q 222.54 136.93 223.18 134.91
  A 2.13 2.13 0.0 0 1 224.13 133.73
  L 230.90 129.82
  A 1.43 1.42 -59.9 0 1 231.61 129.63
  L 243.41 129.63
  A 3.14 3.04 27.5 0 0 245.12 129.12
  L 250.93 125.30
  A 3.21 3.08 -88.2 0 0 251.85 124.40
  Q 257.18 116.58 258.58 114.34
  C 259.45 112.95 261.72 105.53 259.49 103.44
  C 256.25 100.38 247.47 102.60 243.86 105.08
  C 239.99 107.75 235.87 109.96 232.47 113.48
  Q 228.95 117.14 226.52 121.22
  C 224.40 124.76 222.25 125.56 218.54 123.51
  Q 214.11 121.05 213.91 117.66
  A 2.47 2.34 -39.4 0 1 214.01 116.85
  Q 216.07 110.26 215.92 108.22
  Q 215.41 101.38 216.90 94.73
  C 217.95 90.05 216.54 86.60 214.30 82.41
  C 212.43 78.93 209.79 74.80 205.41 76.13
  Q 197.47 78.55 197.03 87.27
  Q 196.76 92.37 197.66 104.51
  C 198.01 109.13 199.72 112.91 201.81 116.59
  Q 203.55 119.66 200.88 121.81
  C 198.86 123.45 194.84 126.22 192.90 123.18
  Q 188.62 116.46 182.70 110.63
  Q 178.52 106.51 172.74 107.14
  C 168.19 107.63 163.29 110.60 162.49 115.29
  C 161.88 118.80 164.30 122.70 167.69 124.11
  Q 177.20 128.04 187.64 130.17
  A 4.55 4.44 -27.3 0 1 188.36 130.39
  C 190.39 131.25 193.80 134.17 194.22 136.52
  A 1.33 1.32 -33.6 0 1 194.02 137.50
  C 192.37 140.08 187.99 141.87 184.20 143.78
  C 177.78 147.02 173.67 155.73 171.94 162.20
  C 170.61 167.15 174.62 171.97 179.23 172.47
  Q 183.73 172.96 184.98 172.45
  Q 194.10 168.74 199.41 160.44
  Q 200.74 158.37 201.12 156.61
  Q 202.68 149.48 203.29 142.73
  A 1.27 1.25 -9.4 0 1 204.06 141.67
  Z"
/>
<path d="
  M 69.04 186.95
  L 71.33 183.81
  A 0.51 0.47 7.0 0 1 71.57 183.64
  C 77.78 181.63 79.29 186.25 80.01 191.26
  Q 80.22 192.70 80.82 200.61
  C 81.35 207.61 79.01 214.64 74.63 220.12
  Q 71.10 224.54 64.66 223.77
  C 56.70 222.82 56.58 212.56 56.93 206.46
  C 57.00 205.21 56.57 203.50 55.64 202.69
  A 1.68 1.58 -53.1 0 0 53.20 203.11
  C 48.68 210.04 39.34 208.25 34.15 203.33
  A 2.54 2.40 -83.2 0 1 33.63 202.63
  Q 32.20 199.88 34.36 195.32
  Q 37.39 188.91 43.31 184.77
  Q 44.82 183.72 44.36 181.74
  Q 44.12 180.71 41.74 179.71
  C 34.17 176.53 29.55 167.88 35.90 160.91
  Q 39.77 156.67 40.15 156.41
  C 43.98 153.73 47.88 155.64 52.61 157.54
  C 56.78 159.21 62.57 164.45 64.73 166.98
  Q 66.44 168.97 68.81 175.43
  A 3.00 3.00 0.0 0 1 66.00 179.47
  L 64.69 179.47
  A 4.27 4.25 81.2 0 1 60.63 176.48
  Q 58.68 170.27 50.45 165.35
  Q 48.68 164.29 45.25 164.00
  Q 41.11 163.64 40.84 167.91
  A 2.42 2.42 0.0 0 0 42.09 170.19
  L 48.04 173.48
  A 6.39 6.14 -23.2 0 0 49.79 174.14
  C 54.41 175.14 59.40 177.06 60.45 182.11
  A 1.63 1.62 6.3 0 0 61.37 183.25
  Q 62.02 183.55 63.86 183.68
  C 66.11 183.84 68.06 185.24 68.73 187.15
  A 1.06 1.04 -40.2 0 1 68.65 188.02
  Q 66.22 192.30 66.24 194.06
  Q 66.28 200.45 65.61 205.54
  C 65.28 208.13 65.64 211.35 66.40 213.43
  A 1.17 1.17 0.0 0 0 68.01 214.08
  C 73.03 211.64 70.72 194.85 70.05 190.17
  A 2.02 2.02 0.0 0 0 69.80 189.42
  L 68.98 188.01
  A 0.96 0.96 0.0 0 1 69.04 186.95
  Z
  M 54.3290 188.1621
  A 1.87 1.87 0.0 0 0 51.6856 188.0837
  L 43.4472 195.8471
  A 1.87 1.87 0.0 0 0 43.3687 198.4905
  L 43.4510 198.5779
  A 1.87 1.87 0.0 0 0 46.0944 198.6563
  L 54.3328 190.8929
  A 1.87 1.87 0.0 0 0 54.4113 188.2495
  L 54.3290 188.1621
  Z"
/>
</svg>
