<?xml version="1.0" encoding="UTF-8" standalone="no"?>
<!DOCTYPE svg PUBLIC "-//W3C//DTD SVG 1.1//EN" "http://www.w3.org/Graphics/SVG/1.1/DTD/svg11.dtd">
<svg xmlns="http://www.w3.org/2000/svg" version="1.1" viewBox="167.4 152.3 166.5 199.8">
<path d="
  M 268.62 236.56
  Q 269.19 236.41 269.60 235.85
  C 276.62 226.40 286.56 221.26 298.28 223.86
  Q 311.43 226.77 320.43 236.78
  C 324.83 241.67 328.94 249.26 325.23 255.54
  C 321.71 261.49 312.22 261.98 306.09 262.97
  C 298.54 264.20 283.45 264.64 271.98 267.45
  Q 269.21 268.13 268.00 269.10
  A 3.15 3.15 0.0 0 0 267.26 273.16
  Q 269.09 276.24 271.94 278.89
  Q 274.49 281.26 285.57 291.16
  C 295.07 299.65 302.57 310.49 298.55 323.88
  Q 296.39 331.08 291.41 337.07
  C 283.06 347.09 273.54 335.74 268.13 329.36
  C 262.14 322.30 256.38 312.84 252.50 306.03
  Q 245.60 293.90 243.08 290.39
  A 1.99 1.91 -1.1 0 0 242.54 289.89
  L 242.13 289.62
  A 1.19 1.19 0.0 0 0 240.30 290.61
  Q 240.16 307.18 239.59 316.27
  Q 239.03 325.23 235.37 332.60
  C 230.82 341.75 219.48 342.21 211.55 337.93
  C 202.19 332.88 196.82 322.31 196.50 311.66
  C 196.03 296.29 204.18 280.78 214.15 269.06
  A 0.90 0.90 0.0 0 0 213.62 267.59
  Q 212.13 267.32 209.64 267.89
  Q 202.78 269.46 190.11 274.10
  Q 185.29 275.86 180.81 275.45
  C 173.39 274.76 173.42 268.07 173.70 262.00
  C 174.25 250.18 189.48 247.58 198.76 246.53
  Q 208.78 245.40 214.61 244.64
  Q 217.30 244.30 219.25 242.78
  A 2.70 2.27 -31.2 0 0 220.22 239.93
  C 218.93 236.72 214.52 233.76 211.73 232.00
  C 204.11 227.21 195.27 223.24 186.86 218.43
  Q 179.47 214.20 174.79 207.01
  Q 173.87 205.60 173.38 202.40
  C 172.41 196.03 175.64 190.01 179.61 184.57
  C 184.60 177.74 192.62 174.89 200.79 178.03
  C 210.55 181.80 219.19 192.43 222.67 202.08
  C 226.16 211.79 227.87 218.83 232.95 225.05
  Q 233.88 226.19 234.72 226.37
  A 1.67 1.54 -83.6 0 0 236.57 224.77
  C 236.94 215.04 231.19 203.57 229.61 193.00
  Q 228.36 184.65 228.51 180.76
  C 228.94 170.38 233.33 161.73 244.02 159.48
  C 254.54 157.27 262.23 159.65 265.80 170.22
  Q 267.54 175.34 268.08 179.99
  C 269.91 195.78 268.68 211.49 267.38 229.70
  Q 267.12 233.29 267.69 236.00
  A 0.74 0.74 0.0 0 0 268.62 236.56
  Z"
/>
</svg>
