<?xml version="1.0" encoding="UTF-8" standalone="no"?>
<!DOCTYPE svg PUBLIC "-//W3C//DTD SVG 1.1//EN" "http://www.w3.org/Graphics/SVG/1.1/DTD/svg11.dtd">
<svg xmlns="http://www.w3.org/2000/svg" version="1.1" viewBox="0.00 0.00 423.00 349.00">
<path d="
  M 184.97 112.47
  A 0.60 0.60 0.0 0 1 183.95 112.36
  Q 183.07 110.51 182.65 107.72
  C 180.68 94.63 179.07 81.83 168.12 74.45
  Q 163.42 71.29 157.44 69.34
  Q 146.16 65.67 137.56 62.04
  C 134.16 60.60 134.35 56.44 138.38 56.63
  Q 147.34 57.07 155.87 57.43
  C 163.90 57.77 175.99 56.19 177.17 46.00
  C 178.46 34.83 174.45 24.63 168.94 14.94
  C 168.17 13.59 167.89 11.45 169.38 10.60
  A 2.08 1.90 54.9 0 1 171.87 11.15
  C 175.29 15.23 178.58 21.05 182.27 25.92
  C 185.74 30.49 192.56 33.99 197.54 34.32
  Q 201.18 34.56 204.86 31.25
  A 3.51 3.41 -6.6 0 0 205.53 30.43
  Q 211.53 20.39 215.38 9.17
  Q 216.27 6.57 218.17 5.03
  A 1.64 1.62 54.1 0 1 220.56 5.43
  C 222.24 8.01 219.18 15.53 217.69 19.86
  C 215.98 24.81 215.12 34.82 219.21 39.25
  C 224.02 44.46 231.01 44.22 237.21 42.26
  Q 245.62 39.60 254.37 35.86
  Q 255.76 35.27 256.81 35.41
  A 1.62 1.62 0.0 0 1 258.08 37.69
  Q 257.47 39.03 255.82 40.08
  Q 249.37 44.18 245.10 47.33
  Q 227.76 60.11 226.07 81.74
  C 225.57 88.11 227.07 92.62 228.73 99.02
  Q 229.49 101.98 229.14 104.80
  A 0.69 0.69 0.0 0 1 228.11 105.31
  Q 227.47 104.95 227.16 104.31
  Q 221.18 92.09 219.73 89.30
  Q 216.03 82.16 209.25 79.34
  C 201.86 76.27 194.35 78.34 190.54 85.54
  Q 188.09 90.15 187.31 95.53
  Q 186.31 102.44 185.43 111.13
  Q 185.34 111.98 184.97 112.47
  Z
  M 220.49 81.24
  A 0.92 0.92 0.0 0 0 222.09 80.85
  Q 222.83 77.42 223.07 74.26
  C 223.62 66.91 227.14 59.36 231.78 53.52
  Q 234.33 50.30 235.73 48.24
  A 0.69 0.69 0.0 0 0 235.10 47.17
  C 231.30 47.52 227.48 48.11 224.05 47.34
  C 216.16 45.59 212.85 39.63 211.57 32.05
  A 1.10 1.10 0.0 0 0 209.68 31.48
  C 207.18 34.16 204.71 37.07 201.72 37.93
  C 194.55 39.99 188.68 37.23 183.14 33.10
  A 1.23 1.23 0.0 0 0 181.19 34.28
  C 182.11 40.10 182.30 45.96 180.21 51.17
  C 176.92 59.35 168.27 60.79 160.23 61.95
  Q 158.99 62.12 158.07 62.64
  A 0.91 0.91 0.0 0 0 158.20 64.29
  Q 174.76 70.36 182.66 85.15
  A 1.41 1.41 0.0 0 0 185.07 85.27
  C 186.69 82.87 188.87 78.98 191.38 76.90
  C 200.59 69.29 213.46 72.82 220.49 81.24
  Z"
/>
<path d="
  M 299.19 172.16
  A 0.48 0.47 10.1 0 1 298.80 171.61
  Q 299.30 168.73 300.39 166.13
  C 303.71 158.19 307.15 148.52 310.93 140.21
  Q 321.86 116.14 336.76 94.27
  C 340.23 89.19 346.13 84.52 352.28 84.33
  C 358.08 84.16 366.48 89.72 360.62 96.04
  Q 337.83 120.65 322.95 150.91
  Q 320.67 155.53 319.07 159.93
  C 317.05 165.47 316.03 169.61 313.97 171.84
  A 1.71 1.70 17.4 0 1 312.93 172.38
  Q 305.91 173.29 299.19 172.16
  Z"
/>
<path d="
  M 24.57 112.94
  A 2.26 2.25 -28.2 0 1 27.31 113.76
  C 31.11 119.35 32.52 121.49 36.23 126.11
  Q 38.55 128.98 51.70 144.32
  C 60.09 154.10 67.48 164.00 75.60 176.87
  Q 82.05 187.07 88.02 195.98
  A 1.76 1.73 58.6 0 0 90.31 196.56
  C 92.27 195.48 91.25 191.18 90.36 189.38
  Q 78.96 166.16 63.75 147.00
  Q 53.37 133.93 43.46 122.04
  C 40.99 119.07 34.58 111.86 34.48 107.16
  C 34.38 101.98 39.24 94.89 45.30 98.57
  A 2.81 2.73 84.4 0 1 45.94 99.11
  Q 65.51 122.03 72.18 131.85
  Q 100.29 173.21 108.90 186.50
  Q 109.62 187.62 110.39 187.55
  A 2.32 2.00 82.3 0 0 112.13 184.88
  C 110.65 176.36 105.16 167.68 100.26 159.75
  Q 87.93 139.83 74.65 121.12
  Q 72.47 118.05 56.32 98.22
  Q 55.33 97.01 54.13 94.19
  C 52.45 90.27 55.06 87.11 58.90 86.61
  Q 65.35 85.77 71.51 88.80
  Q 86.39 96.11 98.34 106.95
  Q 105.18 113.15 115.88 125.46
  Q 123.69 134.45 131.37 145.69
  C 133.18 148.35 132.84 152.46 132.80 156.07
  Q 132.78 157.61 133.07 161.88
  Q 134.57 183.90 133.82 199.53
  Q 133.27 210.92 128.03 226.31
  C 127.60 227.58 127.15 229.85 127.69 231.04
  A 1.90 1.90 0.0 0 0 130.87 231.48
  C 135.92 225.50 138.27 217.23 139.73 209.47
  Q 142.81 193.08 141.89 174.74
  Q 141.34 163.68 141.32 161.62
  C 141.30 159.24 142.26 153.78 144.39 151.41
  C 150.62 144.48 160.32 145.92 166.19 152.35
  Q 168.98 155.40 171.16 160.20
  Q 179.09 177.65 182.43 196.28
  C 186.29 217.81 189.56 237.25 190.63 257.99
  Q 191.88 282.16 187.53 308.29
  C 185.80 318.69 181.27 328.64 171.87 334.10
  C 167.94 336.39 162.79 335.93 158.25 335.89
  C 114.88 335.54 84.52 335.45 53.99 336.62
  Q 44.60 336.98 30.50 337.11
  C 25.08 337.16 17.67 337.50 13.11 334.30
  C 10.36 332.38 12.75 327.72 14.30 325.56
  Q 16.99 321.81 32.88 300.88
  Q 36.11 296.63 39.21 290.45
  Q 47.40 274.12 49.77 256.00
  Q 50.40 251.12 50.96 245.75
  C 52.12 234.49 49.46 223.35 45.27 212.44
  C 40.34 199.61 32.87 189.66 23.61 178.71
  Q 21.38 176.09 14.87 166.95
  C 10.90 161.39 5.05 150.64 12.40 146.06
  Q 16.29 143.65 19.72 146.88
  Q 29.20 155.80 34.50 161.49
  C 44.50 172.23 52.26 183.43 58.72 196.21
  Q 63.32 205.30 65.04 207.69
  Q 66.04 209.08 66.90 209.19
  A 2.15 1.92 -83.8 0 0 69.08 207.23
  Q 69.37 204.31 68.25 200.77
  Q 64.24 188.11 56.77 176.98
  Q 43.29 156.89 25.43 140.89
  C 20.19 136.20 15.87 127.25 17.98 120.55
  Q 19.74 114.96 24.57 112.94
  Z"
/>
<path d="
  M 275.43 175.01
  Q 275.27 173.50 275.86 171.37
  C 280.47 154.74 283.78 141.69 290.67 127.66
  Q 291.36 126.26 306.72 97.73
  Q 310.70 90.33 319.23 90.07
  Q 324.45 89.91 326.53 93.62
  A 1.75 1.73 35.7 0 1 326.73 94.81
  Q 326.34 97.03 325.16 98.90
  Q 307.95 126.19 296.92 156.76
  C 295.36 161.09 294.30 165.62 292.83 170.06
  Q 292.19 171.99 291.55 172.69
  A 2.09 2.08 13.2 0 1 290.64 173.25
  Q 283.91 175.30 276.10 175.60
  A 0.65 0.65 0.0 0 1 275.43 175.01
  Z"
/>
<path d="
  M 321.17 172.88
  A 0.66 0.64 -67.6 0 1 320.85 172.09
  Q 323.23 164.88 326.48 158.27
  Q 342.47 125.78 367.95 99.22
  C 372.08 94.90 378.02 92.82 383.50 96.25
  C 387.94 99.02 388.57 105.83 387.36 110.40
  C 384.56 120.96 379.49 128.38 370.69 144.68
  Q 368.05 149.57 361.27 168.37
  C 360.39 170.83 359.33 173.26 357.82 175.36
  Q 354.50 179.94 334.23 207.47
  Q 333.29 208.76 331.31 209.56
  C 325.19 212.05 318.91 213.78 313.39 216.45
  C 301.62 222.17 289.34 230.47 281.56 241.06
  Q 279.82 243.42 279.06 245.71
  A 0.97 0.96 -75.8 0 0 279.80 246.96
  Q 280.87 247.16 281.89 246.12
  Q 295.95 231.88 311.25 224.37
  C 318.45 220.83 323.67 219.29 332.71 216.46
  Q 337.03 215.11 339.64 211.64
  C 347.36 201.34 358.93 184.08 370.90 172.65
  Q 378.59 165.30 388.76 162.16
  Q 395.53 160.06 399.19 164.79
  C 403.67 170.57 399.91 178.89 396.50 185.02
  Q 390.74 195.35 387.98 200.97
  Q 379.73 217.78 378.15 237.24
  Q 377.85 240.92 379.22 253.50
  Q 381.66 275.77 391.31 294.50
  Q 398.23 307.93 408.57 324.45
  Q 411.09 328.49 411.19 330.04
  C 411.78 339.43 391.64 338.57 386.39 338.38
  C 371.51 337.83 361.50 337.45 347.87 337.42
  Q 331.14 337.37 271.90 337.44
  C 266.25 337.44 257.83 337.09 250.32 336.67
  C 242.83 336.26 235.55 326.22 232.78 320.47
  C 226.50 307.48 225.96 293.30 226.46 278.75
  C 227.19 257.45 230.04 237.99 234.08 215.77
  Q 242.18 171.26 262.50 129.76
  C 267.21 120.16 272.08 111.25 279.24 103.50
  C 282.80 99.64 288.33 97.15 292.87 100.68
  Q 295.06 102.38 293.42 105.72
  C 290.21 112.27 287.23 117.03 284.53 123.02
  Q 276.86 140.00 273.07 156.28
  Q 272.26 159.78 268.59 175.55
  A 3.56 3.54 -8.5 0 1 266.90 177.82
  L 258.84 182.48
  A 1.53 1.53 0.0 0 0 258.96 185.19
  Q 260.15 185.75 261.79 185.38
  Q 271.40 183.15 279.27 181.83
  Q 301.41 178.10 323.22 179.89
  Q 325.76 180.10 326.79 177.63
  C 328.05 174.60 322.78 173.70 321.17 172.88
  Z"
/>
</svg>
