<?xml version="1.0" encoding="UTF-8" standalone="no"?>
<!DOCTYPE svg PUBLIC "-//W3C//DTD SVG 1.1//EN" "http://www.w3.org/Graphics/SVG/1.1/DTD/svg11.dtd">
<svg xmlns="http://www.w3.org/2000/svg" version="1.1" viewBox="4 34 187 253">
<path d="
  M 128.34 180.94
  Q 130.18 181.48 131.23 180.16
  C 136.02 174.14 138.50 165.41 139.86 157.83
  Q 142.92 140.73 141.82 122.35
  C 141.21 112.06 139.40 99.43 150.88 96.37
  C 160.41 93.83 167.30 100.79 170.96 108.80
  Q 179.05 126.48 182.35 144.85
  C 186.27 166.70 189.58 186.26 190.63 207.24
  Q 191.84 231.55 187.57 257.08
  C 185.78 267.77 181.37 277.55 171.75 283.18
  Q 169.85 284.29 167.80 284.54
  Q 165.03 284.88 160.00 284.82
  Q 109.33 284.25 76.12 285.01
  Q 58.34 285.41 31.25 286.08
  Q 23.04 286.28 18.07 285.37
  Q 15.34 284.86 13.19 283.45
  A 2.95 2.94 -72.9 0 1 11.86 280.93
  C 11.92 278.40 13.03 276.37 14.52 274.26
  Q 17.34 270.25 27.78 256.69
  Q 36.10 245.88 38.88 240.22
  C 46.56 224.58 50.12 209.18 51.10 192.49
  Q 51.58 184.40 49.82 176.43
  Q 44.68 153.09 29.52 134.99
  Q 21.96 125.95 15.12 116.39
  C 11.52 111.35 4.46 99.61 12.84 94.74
  Q 16.47 92.63 20.70 96.76
  C 34.46 110.16 46.14 122.21 54.07 136.68
  Q 61.67 150.55 62.71 152.79
  Q 63.81 155.17 65.48 157.26
  Q 66.27 158.26 67.21 158.23
  A 1.84 1.75 2.3 0 0 68.97 156.69
  C 69.60 151.63 67.05 145.40 64.76 140.51
  Q 61.20 132.91 59.61 130.39
  Q 48.73 113.11 34.85 98.94
  C 29.15 93.11 22.47 88.38 19.06 80.71
  C 15.96 73.76 17.20 64.90 24.71 61.91
  A 2.16 2.16 0.0 0 1 27.34 62.76
  Q 32.46 70.84 38.91 78.35
  C 51.25 92.72 60.55 103.07 69.51 116.49
  Q 71.29 119.17 87.96 145.03
  A 1.73 1.72 -35.7 0 0 90.49 145.43
  C 92.53 143.79 90.77 139.01 89.84 137.18
  Q 78.44 114.74 64.63 97.12
  Q 57.43 87.92 41.58 68.74
  C 39.91 66.72 35.03 60.70 34.65 57.60
  Q 33.87 51.15 38.80 47.58
  Q 41.67 45.50 45.24 47.54
  A 3.14 3.08 83.7 0 1 46.05 48.20
  Q 65.15 70.61 71.56 79.98
  Q 92.42 110.51 109.06 135.70
  A 1.60 1.59 46.7 0 0 111.67 135.79
  C 116.44 129.39 80.45 78.28 74.64 70.14
  Q 71.94 66.35 56.50 47.49
  C 55.55 46.33 53.32 42.56 53.57 40.55
  C 54.39 34.09 63.43 35.00 67.70 36.35
  Q 71.58 37.57 76.45 40.31
  C 87.66 46.64 96.93 53.93 106.04 63.56
  Q 119.88 78.17 130.07 92.71
  C 131.70 95.03 133.15 97.87 132.77 100.98
  Q 132.43 103.72 133.69 120.00
  Q 134.04 124.47 133.99 143.12
  C 133.96 154.64 131.47 165.95 127.85 175.85
  Q 127.10 177.91 127.66 180.22
  A 0.98 0.98 0.0 0 0 128.34 180.94
  Z"
/>
</svg>
