<?xml version="1.0" encoding="UTF-8" standalone="no"?>
<!DOCTYPE svg PUBLIC "-//W3C//DTD SVG 1.1//EN" "http://www.w3.org/Graphics/SVG/1.1/DTD/svg11.dtd">
<svg xmlns="http://www.w3.org/2000/svg" version="1.1" viewBox="15 48 185 253">
<path d="
  M 88.07 134.70
  Q 88.37 132.68 89.25 130.50
  C 92.53 122.42 96.44 111.58 99.89 104.04
  Q 110.10 81.73 123.14 61.65
  C 126.65 56.26 130.47 50.85 136.70 48.44
  Q 145.09 45.20 150.47 51.19
  Q 153.80 54.90 150.11 58.89
  Q 127.80 83.05 113.32 111.91
  C 109.81 118.91 107.73 124.90 105.21 131.69
  Q 104.52 133.54 103.59 134.62
  A 2.01 2.00 -74.0 0 1 102.35 135.31
  Q 95.10 136.32 88.33 135.07
  A 0.33 0.32 -81.0 0 1 88.07 134.70
  Z"
/>
<path d="
  M 64.75 137.92
  Q 64.75 136.11 65.26 134.26
  Q 70.52 115.10 73.46 106.46
  Q 76.60 97.25 80.31 90.25
  Q 86.15 79.23 93.43 65.49
  Q 97.54 57.74 100.08 55.81
  C 104.00 52.85 113.09 51.05 116.03 56.91
  A 1.71 1.68 39.0 0 1 116.16 58.05
  Q 115.71 59.96 114.56 61.80
  C 100.84 83.83 89.38 107.38 82.55 132.05
  Q 82.01 134.00 81.05 135.54
  A 1.48 1.44 7.0 0 1 80.22 136.17
  Q 72.15 138.55 65.37 138.55
  A 0.63 0.62 90.0 0 1 64.75 137.92
  Z"
/>
<path d="
  M 68.50 208.22
  A 1.22 1.22 0.0 0 0 70.37 209.72
  Q 72.72 207.75 76.89 203.80
  C 84.65 196.44 94.08 190.31 103.33 186.06
  Q 110.65 182.69 122.75 179.26
  Q 126.12 178.31 128.82 174.83
  C 136.71 164.68 148.06 147.33 160.19 135.70
  Q 167.68 128.53 178.17 125.11
  C 185.60 122.69 191.05 127.75 190.54 135.30
  Q 190.27 139.39 187.76 144.28
  Q 185.41 148.85 179.60 159.57
  Q 170.62 176.10 168.14 194.32
  C 167.02 202.58 167.80 209.87 168.74 217.59
  C 169.97 227.75 172.06 236.32 175.70 246.33
  Q 178.22 253.28 183.85 263.56
  Q 187.27 269.81 199.53 290.23
  C 202.65 295.43 197.81 299.26 193.27 300.26
  C 187.86 301.45 181.26 301.57 175.22 301.36
  C 159.87 300.83 150.11 300.47 136.59 300.43
  Q 110.34 300.36 64.67 300.46
  C 57.01 300.48 46.79 300.06 41.00 299.76
  C 34.97 299.45 31.99 296.62 27.53 291.61
  C 17.56 280.43 15.58 263.11 15.68 248.75
  Q 15.80 231.38 17.94 214.19
  C 21.46 185.85 26.87 156.83 35.82 131.29
  Q 45.05 104.99 56.70 83.47
  Q 60.42 76.59 65.06 70.58
  C 69.02 65.45 74.62 59.60 81.29 63.03
  Q 84.65 64.75 82.79 68.99
  Q 82.75 69.07 77.79 78.37
  C 70.28 92.43 64.93 107.57 61.53 123.02
  Q 58.98 134.65 58.00 138.44
  A 4.51 4.50 84.7 0 1 55.56 141.39
  C 52.62 142.79 49.21 144.16 47.54 146.58
  A 0.82 0.82 0.0 0 0 47.79 147.75
  Q 49.62 148.84 51.76 148.28
  Q 58.11 146.63 68.32 144.90
  Q 91.04 141.05 112.00 142.87
  Q 115.07 143.14 116.22 140.43
  A 2.01 1.76 31.4 0 0 115.53 138.22
  Q 113.63 136.74 110.77 136.02
  A 0.75 0.74 -74.3 0 1 110.24 135.07
  Q 111.94 129.54 114.46 124.21
  C 125.10 101.77 139.24 81.08 156.57 63.05
  Q 160.12 59.36 163.03 58.30
  C 172.58 54.82 178.64 62.97 177.05 71.76
  Q 176.11 76.97 174.03 81.29
  Q 170.44 88.75 163.84 100.57
  C 158.08 110.88 154.02 121.85 150.06 132.97
  C 149.40 134.82 147.91 137.43 147.07 138.57
  Q 132.03 158.97 124.74 169.00
  Q 122.61 171.93 120.28 172.80
  C 113.06 175.48 106.66 177.39 100.28 180.68
  C 88.35 186.84 74.80 196.23 68.50 208.22
  Z"
/>
</svg>
