<?xml version="1.0" encoding="UTF-8" standalone="no"?>
<!DOCTYPE svg PUBLIC "-//W3C//DTD SVG 1.1//EN" "http://www.w3.org/Graphics/SVG/1.1/DTD/svg11.dtd">
<svg xmlns="http://www.w3.org/2000/svg" version="1.1" viewBox="0.00 0.00 400.00 360.00" width="400.00" height="360.00">
<g stroke-width="2.00" fill="none" stroke-linecap="butt">
<path stroke="#bfc70f" vector-effect="non-scaling-stroke" d="
  M 175.52 57.46
  C 171.06 60.08 169.79 66.50 169.79 71.50
  C 169.76 95.07 170.43 129.06 170.25 141.63
  A 3.30 3.29 2.0 0 0 173.37 144.97
  L 173.50 144.97
  A 3.08 3.07 1.8 0 0 176.74 141.93
  Q 176.94 122.00 176.33 93.75
  Q 176.09 82.58 176.22 73.00
  Q 176.28 67.89 178.40 63.40
  C 179.25 61.58 179.10 60.32 178.48 58.55"
/>
<path stroke="#bfc70f" vector-effect="non-scaling-stroke" d="
  M 200.59 72.95
  Q 195.45 73.80 192.12 76.60
  C 187.99 80.08 186.91 86.61 187.21 91.76
  Q 188.43 113.09 188.11 128.54
  Q 187.86 140.48 187.86 145.67
  A 3.00 2.99 -0.7 0 0 190.95 148.67
  L 191.07 148.67
  A 3.31 3.30 -89.5 0 0 194.27 145.51
  Q 195.44 119.88 193.94 93.51
  C 193.72 89.69 193.82 82.34 197.80 80.77
  Q 199.52 80.09 201.50 79.70
  A 2.86 2.71 89.2 0 0 203.70 77.32
  Q 203.84 76.35 204.38 75.89"
/>
<path stroke="#bfc70f" vector-effect="non-scaling-stroke" d="
  M 209.25 76.31
  L 213.19 80.56
  A 4.83 4.63 -79.1 0 1 214.09 81.95
  Q 217.87 90.93 218.37 96.74
  Q 219.46 109.26 220.64 121.80"
/>
<path stroke="#fcb091" vector-effect="non-scaling-stroke" d="
  M 220.64 121.80
  L 220.85 134.43"
/>
<path stroke="#000000" vector-effect="non-scaling-stroke" d="
  M 220.85 134.43
  Q 221.08 149.23 220.95 164.37
  Q 220.85 176.84 219.69 189.24
  Q 217.69 210.55 211.60 231.07
  Q 208.22 242.46 201.36 254.36"
/>
<path stroke="#000000" vector-effect="non-scaling-stroke" d="
  M 134.61 137.71
  Q 132.27 138.96 131.29 140.89
  A 1.89 1.82 60.7 0 0 131.07 141.73
  Q 130.50 159.50 126.65 179.44
  A 3.61 3.61 0.0 0 0 129.12 183.58
  L 129.26 183.63
  A 2.99 2.99 0.0 0 0 133.10 181.28
  C 135.26 168.85 137.64 155.40 137.55 142.46
  A 4.30 4.30 0.0 0 0 137.20 140.81
  L 135.95 137.91"
/>
<path stroke="#000000" vector-effect="non-scaling-stroke" d="
  M 151.11 62.81
  Q 147.78 71.66 148.48 83.00
  Q 149.03 91.94 150.50 143.38
  A 3.20 3.20 0.0 0 0 153.80 146.49
  L 153.93 146.49
  A 3.25 3.25 0.0 0 0 157.08 143.16
  Q 156.34 112.45 155.10 82.57
  Q 154.88 77.48 156.12 67.00
  Q 156.39 64.64 153.99 62.85"
/>
<path stroke="#646225" vector-effect="non-scaling-stroke" d="
  M 220.64 121.80
  Q 220.68 119.03 221.06 116.37
  Q 222.67 105.12 223.08 93.75
  Q 223.49 82.58 226.37 66.51
  Q 226.74 64.46 227.18 62.22"
/>
<path stroke="#646225" vector-effect="non-scaling-stroke" d="
  M 270.71 140.54
  L 267.75 142.02
  A 2.58 2.54 2.5 0 0 266.73 142.94
  Q 259.91 153.84 252.87 168.17
  A 3.23 3.22 27.4 0 0 254.23 172.42
  L 254.31 172.47
  A 3.13 3.13 0.0 0 0 258.64 171.04
  Q 265.32 157.90 272.43 146.16
  Q 273.18 144.93 273.00 142.78"
/>
<path stroke="#646225" vector-effect="non-scaling-stroke" d="
  M 220.85 134.43
  Q 221.51 137.58 225.79 135.98
  A 1.64 1.62 -89.0 0 0 226.74 135.05
  Q 227.40 133.35 227.45 131.83
  Q 228.44 103.41 231.36 75.63
  Q 231.71 72.23 233.21 65.24
  Q 233.55 63.63 231.99 61.10"
/>
<path stroke="#646225" vector-effect="non-scaling-stroke" d="
  M 252.05 68.55
  A 3.53 3.53 0.0 0 0 248.15 70.80
  Q 246.63 74.91 245.54 80.76
  Q 239.87 111.18 239.67 139.27
  A 2.82 2.80 88.4 0 0 242.65 142.10
  L 242.93 142.08
  A 3.46 3.46 0.0 0 0 246.18 138.70
  Q 246.60 117.35 249.57 96.54
  Q 251.55 82.68 254.37 71.88
  A 2.67 2.67 0.0 0 0 252.23 68.58
  L 252.05 68.55"
/>
</g>
<rect fill="#bfc70f" x="-11.82" y="-3.28" transform="translate(291.52,37.26) rotate(-37.4)" width="23.64" height="6.56" rx="3.07"/>
<rect fill="#646225" x="-3.25" y="-10.67" transform="translate(115.66,40.78) rotate(-33.0)" width="6.50" height="21.34" rx="3.16"/>
<path fill="#bfc70f" d="
  M 175.52 57.46
  C 171.06 60.08 169.79 66.50 169.79 71.50
  C 169.76 95.07 170.43 129.06 170.25 141.63
  A 3.30 3.29 2.0 0 0 173.37 144.97
  L 173.50 144.97
  A 3.08 3.07 1.8 0 0 176.74 141.93
  Q 176.94 122.00 176.33 93.75
  Q 176.09 82.58 176.22 73.00
  Q 176.28 67.89 178.40 63.40
  C 179.25 61.58 179.10 60.32 178.48 58.55
  C 184.15 56.58 192.00 56.30 196.47 60.87
  C 199.86 64.34 199.72 69.15 200.59 72.95
  Q 195.45 73.80 192.12 76.60
  C 187.99 80.08 186.91 86.61 187.21 91.76
  Q 188.43 113.09 188.11 128.54
  Q 187.86 140.48 187.86 145.67
  A 3.00 2.99 -0.7 0 0 190.95 148.67
  L 191.07 148.67
  A 3.31 3.30 -89.5 0 0 194.27 145.51
  Q 195.44 119.88 193.94 93.51
  C 193.72 89.69 193.82 82.34 197.80 80.77
  Q 199.52 80.09 201.50 79.70
  A 2.86 2.71 89.2 0 0 203.70 77.32
  Q 203.84 76.35 204.38 75.89
  Q 207.58 77.12 209.25 76.31
  L 213.19 80.56
  A 4.83 4.63 -79.1 0 1 214.09 81.95
  Q 217.87 90.93 218.37 96.74
  Q 219.46 109.26 220.64 121.80
  L 220.85 134.43
  Q 221.08 149.23 220.95 164.37
  Q 220.85 176.84 219.69 189.24
  Q 217.69 210.55 211.60 231.07
  Q 208.22 242.46 201.36 254.36
  Q 194.97 265.56 187.05 275.37
  Q 178.59 285.84 169.07 293.23
  Q 157.35 302.33 145.91 308.13
  Q 136.76 312.77 121.32 316.34
  C 113.48 318.15 105.49 318.22 97.61 318.14
  Q 89.62 318.05 83.04 316.47
  Q 79.51 315.62 77.13 313.89
  C 74.82 312.21 75.32 306.94 76.05 304.56
  Q 77.74 299.14 81.03 294.03
  Q 90.64 279.13 95.12 271.63
  C 105.49 254.26 112.77 236.26 119.73 216.24
  C 122.26 208.98 125.20 200.86 124.08 192.92
  Q 121.93 177.59 116.87 161.59
  Q 114.30 153.44 112.06 149.18
  Q 108.84 143.08 107.46 137.30
  C 106.89 134.95 107.26 130.18 108.54 128.02
  C 113.03 120.39 122.58 120.10 127.79 127.21
  Q 129.76 129.91 134.61 137.71
  Q 132.27 138.96 131.29 140.89
  A 1.89 1.82 60.7 0 0 131.07 141.73
  Q 130.50 159.50 126.65 179.44
  A 3.61 3.61 0.0 0 0 129.12 183.58
  L 129.26 183.63
  A 2.99 2.99 0.0 0 0 133.10 181.28
  C 135.26 168.85 137.64 155.40 137.55 142.46
  A 4.30 4.30 0.0 0 0 137.20 140.81
  L 135.95 137.91
  Q 136.27 117.71 134.89 97.76
  Q 134.20 87.82 133.12 78.03
  C 132.60 73.30 134.05 65.63 138.97 63.54
  Q 145.53 60.73 151.11 62.81
  Q 147.78 71.66 148.48 83.00
  Q 149.03 91.94 150.50 143.38
  A 3.20 3.20 0.0 0 0 153.80 146.49
  L 153.93 146.49
  A 3.25 3.25 0.0 0 0 157.08 143.16
  Q 156.34 112.45 155.10 82.57
  Q 154.88 77.48 156.12 67.00
  Q 156.39 64.64 153.99 62.85
  Q 156.22 52.05 167.37 52.88
  Q 172.68 53.27 175.52 57.46
  Z"
/>
<path fill="#646225" d="
  M 270.71 140.54
  L 267.75 142.02
  A 2.58 2.54 2.5 0 0 266.73 142.94
  Q 259.91 153.84 252.87 168.17
  A 3.23 3.22 27.4 0 0 254.23 172.42
  L 254.31 172.47
  A 3.13 3.13 0.0 0 0 258.64 171.04
  Q 265.32 157.90 272.43 146.16
  Q 273.18 144.93 273.00 142.78
  C 276.90 136.64 281.73 129.16 287.99 124.79
  A 3.27 3.12 -66.0 0 1 289.25 124.27
  C 295.08 123.27 303.47 123.29 305.89 129.62
  C 308.61 136.74 305.06 144.64 300.98 150.65
  C 292.16 163.67 285.17 177.73 282.35 192.69
  Q 280.24 203.92 283.94 215.56
  C 290.96 237.67 297.82 256.61 309.31 275.95
  Q 318.93 292.13 324.04 300.68
  C 327.14 305.88 331.72 314.33 325.98 319.22
  C 324.47 320.51 319.22 321.67 316.90 321.81
  C 310.96 322.16 306.77 322.70 301.36 322.59
  Q 277.06 322.07 255.88 310.61
  Q 242.78 303.52 229.95 292.58
  Q 223.17 286.80 217.56 278.99
  Q 209.06 267.14 203.04 256.21
  Q 202.59 255.39 201.36 254.36
  Q 208.22 242.46 211.60 231.07
  Q 217.69 210.55 219.69 189.24
  Q 220.85 176.84 220.95 164.37
  Q 221.08 149.23 220.85 134.43
  Q 221.51 137.58 225.79 135.98
  A 1.64 1.62 -89.0 0 0 226.74 135.05
  Q 227.40 133.35 227.45 131.83
  Q 228.44 103.41 231.36 75.63
  Q 231.71 72.23 233.21 65.24
  Q 233.55 63.63 231.99 61.10
  Q 234.40 57.41 238.38 56.61
  C 245.39 55.19 253.13 59.00 253.00 67.10
  A 0.82 0.82 0.0 0 0 254.37 67.72
  Q 262.11 60.84 271.02 67.32
  Q 272.41 68.34 273.73 72.82
  C 274.58 75.69 274.06 81.38 273.52 85.32
  Q 272.27 94.32 272.00 102.26
  C 271.60 114.25 270.61 127.71 270.71 140.54
  Z
  M 252.05 68.55
  A 3.53 3.53 0.0 0 0 248.15 70.80
  Q 246.63 74.91 245.54 80.76
  Q 239.87 111.18 239.67 139.27
  A 2.82 2.80 88.4 0 0 242.65 142.10
  L 242.93 142.08
  A 3.46 3.46 0.0 0 0 246.18 138.70
  Q 246.60 117.35 249.57 96.54
  Q 251.55 82.68 254.37 71.88
  A 2.67 2.67 0.0 0 0 252.23 68.58
  L 252.05 68.55
  Z"
/>
<path fill="#afaf29" d="
  M 175.52 57.46
  Q 176.70 58.41 178.48 58.55
  C 179.10 60.32 179.25 61.58 178.40 63.40
  Q 176.28 67.89 176.22 73.00
  Q 176.09 82.58 176.33 93.75
  Q 176.94 122.00 176.74 141.93
  A 3.08 3.07 1.8 0 1 173.50 144.97
  L 173.37 144.97
  A 3.30 3.29 2.0 0 1 170.25 141.63
  C 170.43 129.06 169.76 95.07 169.79 71.50
  C 169.79 66.50 171.06 60.08 175.52 57.46
  Z"
/>
<rect fill="#bfc70f" x="-12.61" y="-3.19" transform="translate(312.80,63.29) rotate(-18.8)" width="25.22" height="6.38" rx="3.10"/>
<path fill="#54520c" d="
  M 231.99 61.10
  Q 233.55 63.63 233.21 65.24
  Q 231.71 72.23 231.36 75.63
  Q 228.44 103.41 227.45 131.83
  Q 227.40 133.35 226.74 135.05
  A 1.64 1.62 -89.0 0 1 225.79 135.98
  Q 221.51 137.58 220.85 134.43
  L 220.64 121.80
  Q 220.68 119.03 221.06 116.37
  Q 222.67 105.12 223.08 93.75
  Q 223.49 82.58 226.37 66.51
  Q 226.74 64.46 227.18 62.22
  Q 230.06 62.11 231.99 61.10
  Z"
/>
<path fill="#646225" d="
  M 227.18 62.22
  Q 226.74 64.46 226.37 66.51
  Q 223.49 82.58 223.08 93.75
  Q 222.67 105.12 221.06 116.37
  Q 220.68 119.03 220.64 121.80
  Q 219.46 109.26 218.37 96.74
  Q 217.87 90.93 214.09 81.95
  A 4.83 4.63 -79.1 0 0 213.19 80.56
  L 209.25 76.31
  C 209.95 74.00 210.31 71.68 211.25 69.74
  Q 215.75 60.49 227.18 62.22
  Z"
/>
<path fill="#afaf29" d="
  M 153.99 62.85
  Q 156.39 64.64 156.12 67.00
  Q 154.88 77.48 155.10 82.57
  Q 156.34 112.45 157.08 143.16
  A 3.25 3.25 0.0 0 1 153.93 146.49
  L 153.80 146.49
  A 3.20 3.20 0.0 0 1 150.50 143.38
  Q 149.03 91.94 148.48 83.00
  Q 147.78 71.66 151.11 62.81
  Q 153.04 63.34 153.99 62.85
  Z"
/>
<path fill="#54520c" d="
  M 252.05 68.55
  L 252.23 68.58
  A 2.67 2.67 0.0 0 1 254.37 71.88
  Q 251.55 82.68 249.57 96.54
  Q 246.60 117.35 246.18 138.70
  A 3.46 3.46 0.0 0 1 242.93 142.08
  L 242.65 142.10
  A 2.82 2.80 88.4 0 1 239.67 139.27
  Q 239.87 111.18 245.54 80.76
  Q 246.63 74.91 248.15 70.80
  A 3.53 3.53 0.0 0 1 252.05 68.55
  Z"
/>
<path fill="#afaf29" d="
  M 200.59 72.95
  L 204.38 75.89
  Q 203.84 76.35 203.70 77.32
  A 2.86 2.71 89.2 0 1 201.50 79.70
  Q 199.52 80.09 197.80 80.77
  C 193.82 82.34 193.72 89.69 193.94 93.51
  Q 195.44 119.88 194.27 145.51
  A 3.31 3.30 -89.5 0 1 191.07 148.67
  L 190.95 148.67
  A 3.00 2.99 -0.7 0 1 187.86 145.67
  Q 187.86 140.48 188.11 128.54
  Q 188.43 113.09 187.21 91.76
  C 186.91 86.61 187.99 80.08 192.12 76.60
  Q 195.45 73.80 200.59 72.95
  Z"
/>
<rect fill="#646225" x="-11.63" y="-3.26" transform="translate(88.20,81.71) rotate(28.2)" width="23.26" height="6.52" rx="3.15"/>
<rect fill="#bfc70f" x="-8.44" y="-3.06" transform="translate(325.22,123.78) rotate(0.5)" width="16.88" height="6.12" rx="2.92"/>
<rect fill="#646225" x="-10.05" y="-3.23" transform="translate(76.27,126.69) rotate(9.5)" width="20.10" height="6.46" rx="3.04"/>
<path fill="#afaf29" d="
  M 134.61 137.71
  Q 134.22 138.00 135.95 137.91
  L 137.20 140.81
  A 4.30 4.30 0.0 0 1 137.55 142.46
  C 137.64 155.40 135.26 168.85 133.10 181.28
  A 2.99 2.99 0.0 0 1 129.26 183.63
  L 129.12 183.58
  A 3.61 3.61 0.0 0 1 126.65 179.44
  Q 130.50 159.50 131.07 141.73
  A 1.89 1.82 60.7 0 1 131.29 140.89
  Q 132.27 138.96 134.61 137.71
  Z"
/>
<path fill="#54520c" d="
  M 270.71 140.54
  Q 270.94 143.01 273.00 142.78
  Q 273.18 144.93 272.43 146.16
  Q 265.32 157.90 258.64 171.04
  A 3.13 3.13 0.0 0 1 254.31 172.47
  L 254.23 172.42
  A 3.23 3.22 27.4 0 1 252.87 168.17
  Q 259.91 153.84 266.73 142.94
  A 2.58 2.54 2.5 0 1 267.75 142.02
  L 270.71 140.54
  Z"
/>
<rect fill="#646225" x="-7.89" y="-3.24" transform="translate(84.57,165.55) rotate(-13.8)" width="15.78" height="6.48" rx="2.87"/>
<rect fill="#bfc70f" x="-9.51" y="-3.03" transform="translate(314.21,177.05) rotate(29.1)" width="19.02" height="6.06" rx="2.93"/>
<rect fill="#646225" x="-8.64" y="-3.28" transform="translate(93.17,188.01) rotate(-32.4)" width="17.28" height="6.56" rx="3.16"/>
</svg>
