<?xml version="1.0" encoding="UTF-8" standalone="no"?>
<!DOCTYPE svg PUBLIC "-//W3C//DTD SVG 1.1//EN" "http://www.w3.org/Graphics/SVG/1.1/DTD/svg11.dtd">
<svg xmlns="http://www.w3.org/2000/svg" version="1.1" viewBox="0.00 0.00 396.00 396.00">
<path fill="#91bbec" d="
  M 217.40 145.22
  Q 218.35 145.19 220.50 146.16
  C 223.07 147.31 226.04 148.63 228.17 150.05
  Q 233.20 153.39 238.27 156.48
  Q 242.12 158.83 243.22 161.75
  Q 244.87 166.13 246.91 169.22
  A 2.87 2.85 18.3 0 1 247.27 169.93
  L 252.72 185.18
  A 0.27 0.27 0.0 0 0 253.15 185.29
  Q 259.04 180.20 264.16 173.20
  Q 264.51 172.73 268.30 169.29
  Q 271.22 166.64 272.30 165.30
  Q 273.27 164.09 279.40 156.97
  A 3.88 3.73 3.3 0 1 280.31 156.19
  Q 281.97 155.19 282.83 152.97
  A 3.28 3.19 77.1 0 1 283.42 152.00
  Q 286.99 147.92 287.88 147.13
  Q 293.06 142.52 295.10 139.17
  Q 295.49 138.54 296.29 137.64
  C 297.83 135.92 299.05 133.98 300.31 132.41
  Q 300.93 131.64 301.33 130.73
  C 301.90 129.43 303.32 129.25 304.16 128.01
  Q 306.58 124.44 309.71 121.64
  Q 310.17 121.22 311.65 118.79
  A 0.33 0.32 15.3 0 0 311.37 118.30
  Q 306.77 118.31 306.12 118.54
  Q 298.06 121.35 291.87 122.46
  A 4.38 4.26 -64.2 0 0 290.49 122.96
  Q 289.94 123.27 289.00 123.74
  Q 288.17 124.15 285.73 124.58
  Q 271.56 127.10 268.19 127.67
  Q 262.42 128.64 258.77 129.01
  Q 252.96 129.60 249.40 130.70
  Q 241.68 133.10 232.25 135.23
  Q 231.64 135.37 230.12 136.04
  A 1.58 1.43 -62.0 0 1 229.79 136.16
  L 214.50 139.64
  A 0.45 0.45 0.0 0 0 214.34 140.45
  L 217.97 143.05
  A 0.61 0.61 0.0 0 1 217.35 144.09
  L 211.01 141.01
  A 1.05 1.05 0.0 0 1 210.89 139.19
  Q 211.85 138.55 213.21 138.14
  Q 221.74 135.60 231.80 133.02
  Q 239.82 130.96 245.75 129.26
  Q 254.66 126.69 265.04 125.63
  A 5.28 5.16 33.1 0 0 266.00 125.44
  C 268.80 124.64 269.55 124.33 272.48 123.90
  Q 284.57 122.13 287.13 121.10
  Q 292.50 118.93 292.82 118.84
  Q 303.90 115.69 313.33 114.16
  Q 315.21 113.86 316.78 114.53
  A 1.40 1.39 31.1 0 1 317.32 116.70
  C 314.99 119.56 312.98 121.76 311.24 124.40
  Q 308.97 127.85 306.80 129.67
  A 2.01 1.98 86.3 0 0 306.35 130.19
  L 302.61 136.46
  A 0.92 0.82 87.0 0 1 302.44 136.67
  C 299.70 139.03 297.98 141.52 295.19 144.22
  Q 284.05 155.01 280.40 159.64
  Q 275.51 165.84 272.93 167.33
  A 2.92 2.83 -86.0 0 0 272.05 168.12
  Q 269.03 172.18 265.05 175.81
  Q 264.16 176.61 263.51 177.83
  A 2.46 2.27 84.3 0 1 263.06 178.43
  L 253.36 187.78
  A 0.65 0.64 59.1 0 0 253.20 188.45
  L 254.19 191.21
  A 0.48 0.48 0.0 0 1 253.32 191.61
  Q 250.95 187.58 249.29 183.09
  C 247.83 179.14 246.32 176.42 245.00 172.54
  A 0.83 0.83 0.0 0 0 243.94 172.02
  Q 242.35 172.55 241.12 173.57
  A 2.12 2.09 -62.3 0 1 239.64 174.04
  Q 237.36 173.87 233.47 175.33
  A 1.19 1.17 1.8 0 0 232.84 175.91
  L 231.58 178.51
  A 0.72 0.72 0.0 0 1 230.28 178.49
  Q 229.98 177.81 230.40 176.54
  A 0.46 0.46 0.0 0 0 229.98 175.94
  Q 229.19 175.91 228.17 174.66
  A 1.19 1.19 0.0 0 1 227.92 173.80
  C 228.13 171.82 226.95 168.24 228.01 166.13
  A 0.90 0.86 60.2 0 0 228.11 165.72
  L 228.25 155.77
  A 0.99 0.98 68.2 0 1 228.55 155.06
  L 229.19 154.42
  A 0.84 0.84 0.0 0 0 228.96 153.08
  L 222.14 149.76
  A 0.54 0.47 -0.0 0 1 221.90 149.55
  Q 221.30 148.58 219.54 147.90
  A 0.07 0.07 0.0 0 1 219.49 147.88
  L 217.27 145.54
  A 0.19 0.19 0.0 0 1 217.40 145.22
  Z
  M 233.93 158.91
  Q 234.07 158.83 235.38 159.41
  A 0.44 0.44 0.0 0 0 235.99 158.93
  Q 235.88 158.36 234.78 157.89
  Q 234.02 157.58 233.61 158.64
  A 0.22 0.22 0.0 0 0 233.93 158.91
  Z
  M 239.38 160.71
  A 0.22 0.22 0.0 0 0 238.98 160.73
  L 235.12 171.40
  A 0.22 0.22 0.0 0 0 235.38 171.69
  L 242.73 170.02
  A 0.75 0.74 -19.1 0 0 243.24 168.98
  L 239.38 160.71
  Z
  M 231.52 170.81
  Q 231.50 170.89 231.52 170.96
  A 0.06 0.05 -52.1 0 0 231.62 170.94
  Q 231.62 170.93 231.64 170.83
  A 0.06 0.06 0.0 0 0 231.52 170.81
  Z"
/>
<path fill="#91bbec" d="
  M 267.49 141.38
  Q 268.78 139.54 270.98 138.90
  A 0.57 0.56 -84.6 0 0 271.32 138.61
  L 272.10 137.01
  A 1.02 1.02 0.0 0 1 272.64 136.50
  L 277.16 134.54
  A 1.32 1.18 -74.7 0 0 277.44 134.36
  Q 283.82 128.43 290.98 126.91
  A 5.35 5.25 -66.3 0 0 292.65 126.24
  Q 295.36 124.53 298.12 123.83
  C 299.71 123.43 300.39 122.26 302.37 121.91
  Q 303.36 121.73 303.54 121.07
  A 0.58 0.58 0.0 0 1 303.92 120.69
  L 309.38 119.01
  A 0.15 0.14 65.4 0 1 309.55 119.08
  L 309.73 119.48
  A 0.54 0.54 0.0 0 1 309.51 120.18
  L 295.46 128.50
  A 9.48 9.33 -68.1 0 1 293.44 129.38
  Q 288.23 130.96 283.13 133.95
  A 6.52 6.45 -67.6 0 1 281.52 134.63
  Q 276.70 135.94 273.49 138.85
  A 1.32 1.32 0.0 0 1 273.13 139.09
  L 267.73 141.66
  A 0.19 0.19 0.0 0 1 267.49 141.38
  Z"
/>
<path fill="#91bbec" d="
  M 260.32 146.39
  Q 254.94 149.85 254.38 149.93
  C 251.85 150.27 250.51 153.53 246.78 153.26
  A 0.89 0.88 -72.7 0 0 245.95 153.70
  L 245.30 154.82
  A 1.47 1.43 -84.4 0 1 244.52 155.48
  L 241.47 156.57
  A 0.29 0.29 0.0 0 1 241.20 156.06
  L 244.65 153.62
  A 0.74 0.71 -7.8 0 0 244.92 153.28
  Q 245.65 151.18 249.26 149.52
  Q 256.47 146.19 259.77 145.19
  A 0.67 0.67 0.0 0 1 260.32 146.39
  Z"
/>
<path fill="#91bbec" d="
  M 142.72 162.61
  A 0.29 0.28 -85.9 0 1 142.39 162.90
  L 140.98 162.65
  A 0.75 0.75 0.0 0 1 140.37 161.78
  L 140.93 158.66
  A 0.80 0.79 43.9 0 1 142.49 158.63
  Q 142.66 159.40 142.72 162.61
  Z"
/>
<path fill="#91bbec" d="
  M 136.51 164.35
  C 138.14 164.39 138.55 164.95 139.57 165.37
  A 1.16 1.14 37.5 0 0 140.70 165.23
  Q 141.46 164.66 142.32 165.27
  A 0.51 0.51 0.0 0 0 143.12 164.89
  L 143.19 163.76
  A 0.18 0.18 0.0 0 1 143.42 163.59
  Q 143.44 163.60 144.03 163.42
  A 1.02 0.99 -84.2 0 0 144.66 162.89
  L 146.67 158.75
  A 1.18 1.18 0.0 0 1 148.78 158.73
  Q 150.01 161.13 147.84 163.03
  A 2.60 2.58 -13.4 0 0 147.03 164.34
  Q 146.69 165.70 145.75 167.02
  A 0.31 0.31 0.0 0 0 146.07 167.50
  L 152.82 165.96
  A 0.65 0.63 -17.0 0 1 153.56 166.34
  Q 153.84 167.02 153.02 167.63
  Q 150.73 169.33 149.97 170.33
  A 1.27 1.23 15.3 0 1 149.08 170.82
  Q 148.25 170.89 146.92 171.52
  A 0.43 0.43 0.0 0 0 146.77 172.18
  Q 147.05 172.53 147.20 172.61
  A 1.37 1.36 -28.8 0 1 146.45 175.15
  Q 146.37 175.14 145.46 174.78
  A 0.66 0.66 0.0 0 0 144.61 175.67
  Q 145.52 177.65 144.86 178.36
  A 1.92 1.59 -36.9 0 1 141.88 178.22
  Q 141.75 177.91 141.60 176.02
  A 0.34 0.33 -24.4 0 0 141.03 175.81
  Q 139.34 177.46 138.35 180.10
  A 1.27 1.26 20.9 0 1 136.71 180.83
  L 136.66 180.82
  A 1.26 1.26 0.0 0 1 135.91 179.16
  L 138.02 173.83
  A 0.37 0.36 -0.2 0 0 137.54 173.36
  Q 135.93 174.00 133.92 173.81
  A 0.98 0.97 -75.0 0 1 133.13 172.43
  L 133.15 172.39
  A 2.04 2.04 0.0 0 1 134.93 171.19
  Q 137.62 171.07 139.16 169.95
  A 0.52 0.51 55.1 0 0 139.28 169.24
  L 136.22 164.91
  A 0.36 0.35 72.7 0 1 136.51 164.35
  Z"
/>
<path fill="#91bbec" d="
  M 97.26 193.20
  A 1.87 1.86 6.8 0 1 95.08 194.91
  Q 92.50 194.46 83.98 192.27
  Q 82.25 191.82 81.21 190.70
  A 1.44 1.40 -68.6 0 1 80.84 189.82
  Q 80.60 185.64 80.64 182.49
  C 80.65 181.44 79.90 180.07 80.51 178.97
  Q 80.88 178.32 80.51 177.49
  Q 79.94 176.21 80.77 174.96
  A 1.38 1.36 -81.2 0 1 81.54 174.39
  Q 84.19 173.65 85.04 173.89
  C 89.43 175.15 93.81 173.98 98.23 177.73
  A 1.35 1.34 22.7 0 1 98.70 178.87
  L 97.92 188.12
  A 1.35 1.23 62.7 0 1 97.80 188.57
  Q 97.32 189.56 97.72 190.31
  A 1.31 1.30 -45.7 0 1 97.73 191.50
  Q 97.31 192.34 97.26 193.20
  Z
  M 83.24 176.98
  Q 82.92 178.13 83.54 179.39
  A 1.70 1.63 35.0 0 1 83.72 180.29
  L 83.12 187.38
  A 2.17 2.15 11.7 0 0 84.59 189.60
  L 87.54 190.57
  A 3.29 3.09 -32.8 0 0 88.41 190.73
  Q 91.24 190.86 93.63 191.53
  A 0.64 0.63 15.8 0 0 94.42 191.09
  Q 95.74 186.29 95.07 182.11
  C 94.97 181.52 95.19 180.91 95.28 180.34
  A 0.86 0.85 11.5 0 0 94.64 179.38
  L 83.77 176.67
  A 0.43 0.43 0.0 0 0 83.24 176.98
  Z"
/>
<path fill="#91bbec" d="
  M 202.84 191.13
  Q 207.40 189.46 210.93 192.57
  A 1.52 1.48 67.6 0 0 211.81 192.95
  L 212.91 193.04
  A 1.34 1.34 0.0 0 1 213.96 193.71
  Q 216.61 198.38 215.83 201.98
  Q 215.36 204.15 213.61 205.95
  Q 208.91 210.80 203.09 207.43
  A 2.12 2.08 -27.8 0 0 202.16 207.15
  Q 199.62 207.01 199.40 205.12
  C 199.14 202.87 198.57 202.25 198.25 199.49
  A 0.39 0.39 0.0 0 0 197.61 199.23
  Q 192.75 203.27 192.32 203.81
  Q 190.12 206.63 180.63 221.65
  A 1.26 0.99 -24.3 0 0 180.49 221.92
  L 179.44 224.82
  A 0.78 0.78 0.0 0 1 178.63 225.34
  Q 176.08 225.12 176.49 227.30
  Q 177.09 230.52 175.97 232.93
  Q 172.92 239.49 170.64 247.70
  Q 169.59 251.46 169.66 251.90
  C 169.86 253.17 168.90 254.15 169.01 255.73
  A 0.08 0.08 0.0 0 1 168.85 255.77
  Q 168.15 254.11 168.42 252.89
  A 3.98 3.82 48.1 0 0 168.47 251.45
  Q 167.88 247.86 168.17 246.73
  Q 169.53 241.40 170.05 237.84
  A 2.01 1.85 65.8 0 1 170.29 237.12
  Q 170.80 236.19 170.84 236.02
  Q 171.91 230.85 174.40 222.34
  C 177.43 211.98 182.79 203.90 190.44 196.63
  A 3.49 3.34 -77.9 0 1 191.28 196.06
  L 198.79 192.57
  A 2.18 2.16 -5.7 0 0 199.98 191.13
  C 200.31 189.85 200.92 188.31 201.73 187.20
  Q 208.30 178.24 219.78 176.73
  A 0.54 0.54 0.0 0 1 220.34 177.50
  L 220.31 177.56
  A 2.17 2.17 0.0 0 1 218.97 178.69
  C 213.47 180.28 207.59 182.90 203.88 187.88
  Q 202.44 189.81 202.37 190.78
  A 0.35 0.35 0.0 0 0 202.84 191.13
  Z
  M 208.78 194.41
  Q 208.54 194.74 208.82 195.71
  Q 209.29 197.39 210.12 197.80
  A 0.74 0.67 83.0 0 0 210.91 196.68
  Q 210.49 196.09 209.71 195.78
  A 0.76 0.75 -67.2 0 1 209.30 194.77
  Q 209.36 194.62 209.36 194.60
  A 0.32 0.32 0.0 0 0 208.78 194.41
  Z
  M 201.1575 196.8545
  A 5.11 3.95 -132.2 0 0 201.6638 203.2933
  A 5.11 3.95 -132.2 0 0 208.0225 204.4255
  A 5.11 3.95 -132.2 0 0 207.5162 197.9867
  A 5.11 3.95 -132.2 0 0 201.1575 196.8545
  Z
  M 212.2504 199.0463
  A 0.84 0.40 -144.0 0 0 212.6949 199.8636
  A 0.84 0.40 -144.0 0 0 213.6096 200.0337
  A 0.84 0.40 -144.0 0 0 213.1651 199.2164
  A 0.84 0.40 -144.0 0 0 212.2504 199.0463
  Z
  M 182.4830 208.2455
  A 2.18 0.36 -59.3 0 0 181.0605 209.9362
  A 2.18 0.36 -59.3 0 0 180.2570 211.9945
  A 2.18 0.36 -59.3 0 0 181.6795 210.3038
  A 2.18 0.36 -59.3 0 0 182.4830 208.2455
  Z
  M 180.01 213.42
  Q 179.14 213.81 178.86 214.45
  A 0.52 0.51 -0.3 0 0 179.54 215.12
  Q 179.90 214.97 180.38 213.78
  A 0.28 0.28 0.0 0 0 180.01 213.42
  Z"
/>
<path fill="#91bbec" d="
  M 120.10 217.78
  Q 118.07 218.73 115.12 218.51
  A 5.32 5.21 41.5 0 0 113.91 218.57
  Q 108.66 219.49 103.53 219.06
  A 1.48 1.48 0.0 0 1 102.63 216.52
  L 107.84 211.50
  Q 107.88 211.47 107.92 211.44
  L 116.75 205.20
  A 0.90 0.89 66.6 0 0 117.11 204.27
  Q 116.27 200.47 115.38 192.48
  Q 115.08 189.86 115.60 186.86
  C 115.98 184.62 115.07 182.55 115.74 180.53
  A 1.59 1.59 0.0 0 1 118.32 179.85
  L 123.01 184.08
  A 1.93 1.92 12.2 0 1 123.58 184.96
  L 123.78 185.55
  A 1.90 1.81 17.1 0 0 124.06 186.05
  L 133.53 197.63
  A 0.63 0.63 0.0 0 0 134.39 197.73
  Q 142.44 191.74 145.63 189.65
  A 2.09 1.86 -31.1 0 1 148.48 190.18
  C 149.41 191.89 148.21 193.59 148.68 194.97
  C 149.04 196.03 148.18 197.20 148.19 198.38
  Q 148.22 201.17 147.34 204.26
  A 2.17 1.83 -40.1 0 0 147.25 204.78
  L 147.05 209.74
  A 1.41 1.38 18.5 0 0 147.67 210.95
  Q 153.39 214.76 157.79 220.43
  A 1.15 1.14 34.0 0 1 157.99 221.45
  Q 157.68 222.52 156.08 223.20
  A 0.65 0.61 37.3 0 1 155.70 223.24
  L 137.02 219.91
  A 0.77 0.77 0.0 0 0 136.20 220.31
  Q 130.99 230.34 128.73 238.63
  C 128.38 239.93 127.39 240.84 126.23 240.88
  A 1.81 1.62 -4.2 0 1 124.39 239.46
  Q 123.77 234.52 123.09 231.88
  Q 122.02 227.79 120.73 218.13
  A 0.45 0.45 0.0 0 0 120.10 217.78
  Z
  M 131.23 201.28
  Q 131.49 201.09 131.52 200.80
  Q 131.55 200.55 131.31 200.28
  Q 130.00 198.81 129.61 199.09
  Q 129.22 199.38 130.24 201.07
  Q 130.43 201.38 130.68 201.42
  Q 130.96 201.48 131.23 201.28
  Z
  M 110.7319 214.2974
  A 2.57 0.63 -25.9 0 0 108.1448 214.8533
  A 2.57 0.63 -25.9 0 0 106.1081 216.5426
  A 2.57 0.63 -25.9 0 0 108.6952 215.9867
  A 2.57 0.63 -25.9 0 0 110.7319 214.2974
  Z
  M 136.63 217.19
  Q 136.66 217.33 137.28 217.69
  A 0.25 0.24 12.9 0 0 137.65 217.46
  Q 137.64 217.31 137.04 216.91
  A 0.27 0.27 0.0 0 0 136.63 217.19
  Z
  M 148.89 219.81
  Q 149.50 219.91 150.49 219.63
  A 0.21 0.21 0.0 0 0 150.47 219.23
  Q 148.67 218.89 148.55 219.20
  A 0.45 0.45 0.0 0 0 148.89 219.81
  Z"
/>
<path fill="#91bbec" d="
  M 237.84 231.71
  Q 240.77 233.30 250.37 239.22
  A 1.49 1.40 39.3 0 1 250.67 241.51
  Q 249.24 242.81 247.45 241.35
  A 0.83 0.83 0.0 0 0 246.88 241.17
  L 238.51 241.75
  A 1.04 1.04 0.0 0 0 237.55 242.65
  Q 237.17 245.59 237.46 249.14
  A 1.69 1.69 0.0 0 1 237.46 249.40
  L 237.04 253.26
  A 1.93 1.93 0.0 0 1 234.11 254.69
  Q 233.68 254.42 233.17 253.61
  Q 230.83 249.83 228.68 245.33
  A 0.56 0.56 0.0 0 0 227.98 245.05
  Q 221.51 247.52 218.36 249.67
  C 217.01 250.59 215.27 250.22 214.79 248.91
  A 1.50 1.48 -39.0 0 1 214.95 247.47
  L 221.02 238.99
  A 2.06 2.06 0.0 0 0 220.79 236.31
  Q 217.09 232.71 213.99 229.26
  Q 212.66 227.77 212.45 227.18
  A 1.34 1.34 0.0 0 1 214.12 225.45
  Q 219.66 227.25 226.06 227.02
  A 0.95 0.92 17.2 0 0 226.75 226.67
  L 232.41 219.56
  A 1.95 1.95 0.0 0 1 235.81 220.24
  L 236.90 224.01
  A 1.45 1.34 -49.6 0 1 236.93 224.69
  Q 236.57 226.51 237.30 230.95
  A 1.08 1.04 -81.6 0 0 237.84 231.71
  Z
  M 241.75 238.20
  L 235.42 233.68
  A 1.11 1.10 -77.4 0 1 234.98 232.98
  L 233.41 224.23
  A 0.27 0.27 0.0 0 0 232.95 224.08
  L 227.61 229.43
  A 1.00 0.99 -64.8 0 1 226.82 229.72
  L 218.38 229.01
  A 0.30 0.30 0.0 0 0 218.13 229.52
  Q 221.12 232.67 224.15 235.66
  Q 226.07 237.54 224.76 239.35
  Q 223.32 241.36 221.01 244.22
  A 0.34 0.34 0.0 0 0 221.44 244.73
  L 228.06 240.91
  A 1.55 1.55 0.0 0 1 230.37 242.00
  Q 230.55 243.12 231.19 243.86
  Q 233.01 245.96 233.51 247.93
  A 0.22 0.22 0.0 0 0 233.94 247.92
  L 235.41 239.66
  A 1.71 1.71 0.0 0 1 237.24 238.26
  L 241.59 238.62
  A 0.23 0.23 0.0 0 0 241.75 238.20
  Z"
/>
<path fill="#91bbec" d="
  M 137.42 230.09
  L 141.58 232.73
  A 1.04 1.04 0.0 0 1 141.22 234.63
  Q 140.68 234.73 140.01 234.22
  Q 138.11 232.77 136.95 230.52
  A 0.33 0.33 0.0 0 1 137.42 230.09
  Z"
/>
<path fill="#91bbec" d="
  M 142.61 248.45
  A 0.44 0.44 0.0 0 1 141.86 248.06
  L 143.27 240.13
  A 1.15 1.15 0.0 0 1 145.54 240.23
  Q 145.99 245.03 142.61 248.45
  Z"
/>
<path fill="#91bbec" d="
  M 203.04 250.04
  A 0.24 0.24 0.0 0 0 203.50 249.90
  Q 203.14 247.66 203.61 246.67
  A 1.23 1.23 0.0 0 1 205.96 247.24
  L 205.85 249.52
  A 0.35 0.35 0.0 0 0 206.44 249.78
  Q 207.31 248.93 207.43 248.92
  A 1.85 1.79 -79.3 0 1 209.16 251.55
  Q 208.60 252.73 207.57 253.36
  A 0.44 0.44 0.0 0 0 207.56 254.11
  Q 207.59 254.13 208.51 254.24
  Q 209.41 254.34 209.30 254.94
  C 209.04 256.35 207.27 255.99 206.68 256.50
  A 0.93 0.93 0.0 0 0 206.47 257.66
  C 207.52 259.58 208.90 262.52 208.30 264.23
  A 1.66 1.43 44.7 0 1 205.45 264.03
  Q 204.49 262.04 203.01 261.05
  A 0.99 0.97 19.4 0 1 202.58 260.17
  L 202.65 259.43
  A 0.49 0.49 0.0 0 0 201.74 259.14
  Q 199.54 262.74 196.09 264.44
  A 0.68 0.68 0.0 0 1 195.14 263.64
  C 195.74 261.66 197.03 259.86 198.86 258.58
  Q 200.03 257.75 200.36 256.74
  A 0.44 0.44 0.0 0 0 199.91 256.17
  Q 196.80 256.40 194.87 253.96
  A 0.46 0.45 73.0 0 1 195.26 253.22
  L 200.08 253.62
  A 0.28 0.28 0.0 0 0 200.37 253.25
  L 197.56 245.40
  A 1.00 1.00 0.0 0 1 198.30 244.09
  Q 199.52 243.82 200.18 244.82
  Q 201.49 246.77 203.04 250.04
  Z"
/>
<path fill="#91bbec" d="
  M 133.48 260.14
  A 0.10 0.10 0.0 0 1 133.35 260.18
  L 133.29 260.16
  A 3.30 2.06 -62.3 0 1 133.00 256.28
  L 133.79 254.77
  A 3.30 2.06 -62.3 0 1 137.15 252.81
  L 137.20 252.84
  A 0.10 0.10 0.0 0 1 137.25 252.97
  L 133.48 260.14
  Z"
/>
<rect fill="#91bbec" x="-1.51" y="-3.61" transform="translate(168.40,266.32) rotate(-2.0)" width="3.02" height="7.22" rx="1.44"/>
<path fill="#91bbec" d="
  M 224.16 266.65
  A 1.20 1.20 0.0 0 1 226.29 266.07
  C 228.37 268.71 229.35 270.51 231.28 272.28
  C 232.30 273.22 232.77 275.15 234.08 276.43
  C 237.82 280.08 233.72 284.00 231.88 286.99
  C 229.96 290.12 227.39 290.71 224.94 287.84
  C 223.26 285.87 219.87 283.34 218.44 280.75
  A 2.36 2.34 47.8 0 1 218.55 278.29
  Q 221.82 273.48 223.97 267.98
  Q 223.99 267.92 224.16 266.65
  Z"
/>
<path fill="#91bbec" d="
  M 138.76 274.86
  A 0.56 0.55 89.0 0 1 138.10 275.55
  Q 134.85 274.78 133.83 271.39
  A 1.02 0.87 78.5 0 1 134.55 270.09
  Q 135.77 270.00 136.39 270.91
  C 137.26 272.20 138.43 273.62 138.76 274.86
  Z"
/>
<path fill="#91bbec" d="
  M 166.83 284.29
  Q 167.27 280.46 165.56 276.36
  A 0.43 0.42 -13.5 0 1 165.93 275.77
  L 166.31 275.74
  A 1.35 1.35 0.0 0 1 167.76 276.99
  L 168.27 284.28
  A 0.43 0.43 0.0 0 1 167.87 284.73
  L 167.28 284.77
  A 0.43 0.42 -88.8 0 1 166.83 284.29
  Z"
/>
<path fill="#91bbec" d="
  M 145.98 290.71
  A 0.13 0.13 0.0 0 1 145.91 290.88
  L 145.82 290.92
  A 3.73 2.57 66.7 0 1 141.99 288.51
  L 140.78 285.72
  A 3.73 2.57 66.7 0 1 141.67 281.28
  L 141.76 281.24
  A 0.13 0.13 0.0 0 1 141.93 281.30
  L 145.98 290.71
  Z"
/>
<path fill="#91bbec" d="
  M 155.28 293.54
  A 0.24 0.24 0.0 0 1 155.61 293.23
  Q 156.85 293.89 158.02 292.96
  Q 162.24 289.61 163.67 288.56
  A 0.50 0.50 0.0 0 1 164.47 288.90
  Q 164.60 289.88 163.95 291.04
  Q 162.01 294.47 157.30 295.24
  A 1.46 1.44 54.3 0 1 156.37 295.08
  Q 155.80 294.76 155.28 293.54
  Z"
/>
</svg>
