<?xml version="1.0" encoding="UTF-8" standalone="no"?>
<!DOCTYPE svg PUBLIC "-//W3C//DTD SVG 1.1//EN" "http://www.w3.org/Graphics/SVG/1.1/DTD/svg11.dtd">
<svg xmlns="http://www.w3.org/2000/svg" version="1.1" viewBox="0.00 0.00 396.00 396.00">
<path fill="#bfc70f" d="
  M 217.40 145.22
  Q 218.39 145.20 220.50 146.16
  C 223.10 147.33 225.83 148.55 228.18 150.07
  Q 237.07 155.83 238.27 156.52
  Q 242.06 158.70 243.21 161.74
  Q 244.88 166.15 246.92 169.22
  A 3.16 2.76 22.7 0 1 247.25 169.89
  L 252.78 185.34
  A 0.28 0.28 0.0 0 0 253.25 185.44
  L 281.76 154.89
  A 0.46 0.34 -18.4 0 0 281.85 154.76
  Q 283.88 150.80 287.39 147.63
  Q 293.01 142.55 295.10 139.20
  Q 295.48 138.59 296.35 137.60
  C 297.89 135.86 299.11 133.91 300.29 132.42
  Q 300.97 131.58 301.33 130.73
  C 301.87 129.46 303.33 129.24 304.16 128.01
  Q 306.59 124.44 309.79 121.55
  A 2.14 2.07 -12.0 0 0 310.39 120.66
  Q 310.52 120.30 311.68 118.88
  A 0.35 0.35 0.0 0 0 311.41 118.30
  Q 306.76 118.34 306.32 118.49
  Q 299.06 121.03 291.83 122.53
  A 8.85 8.55 27.5 0 0 290.41 122.95
  Q 286.16 124.58 285.47 124.70
  Q 270.53 127.19 268.90 127.55
  Q 265.86 128.21 258.54 129.02
  Q 252.70 129.67 248.27 131.04
  Q 241.47 133.15 232.25 135.24
  Q 231.61 135.39 230.10 136.04
  A 1.74 1.60 -61.5 0 1 229.75 136.16
  L 214.59 139.63
  A 0.31 0.31 0.0 0 0 214.45 140.16
  L 217.85 143.34
  A 0.45 0.45 0.0 0 1 217.34 144.08
  L 211.05 141.02
  A 1.16 1.15 49.1 0 1 211.20 138.88
  Q 220.95 135.82 231.80 133.02
  Q 240.68 130.72 245.75 129.26
  Q 254.71 126.68 265.04 125.63
  A 5.84 4.80 -50.6 0 0 266.00 125.44
  C 268.80 124.64 269.55 124.33 272.48 123.90
  Q 284.57 122.13 287.13 121.10
  Q 292.49 118.93 292.82 118.84
  Q 303.89 115.69 313.33 114.16
  Q 315.21 113.86 316.79 114.53
  A 1.40 1.40 0.0 0 1 317.32 116.70
  C 314.99 119.56 312.98 121.76 311.24 124.40
  Q 308.97 127.85 306.80 129.67
  A 2.01 1.98 86.3 0 0 306.35 130.19
  L 302.61 136.46
  A 0.92 0.82 87.0 0 1 302.44 136.67
  C 299.70 139.03 297.98 141.52 295.19 144.22
  Q 284.05 155.01 280.40 159.64
  Q 275.51 165.85 272.93 167.33
  A 2.81 2.69 -85.3 0 0 272.14 168.03
  Q 269.05 172.14 265.05 175.81
  Q 264.17 176.62 263.51 177.83
  A 2.46 2.27 84.3 0 1 263.06 178.43
  L 253.36 187.78
  A 0.64 0.62 58.5 0 0 253.21 188.45
  L 254.19 191.20
  A 0.48 0.48 0.0 0 1 253.32 191.61
  Q 250.96 187.58 249.29 183.09
  C 247.83 179.13 246.32 176.42 245.00 172.54
  A 0.84 0.83 -19.0 0 0 243.93 172.02
  Q 242.35 172.55 241.12 173.57
  A 2.12 2.09 -62.3 0 1 239.64 174.04
  Q 237.37 173.87 233.47 175.33
  A 1.19 1.17 1.8 0 0 232.84 175.91
  L 231.57 178.51
  A 0.71 0.71 0.0 0 1 230.28 178.49
  Q 229.98 177.81 230.40 176.53
  A 0.47 0.47 0.0 0 0 230.00 175.92
  Q 229.10 175.83 228.17 174.66
  A 1.20 1.14 -62.6 0 1 227.92 173.80
  C 228.13 171.81 226.95 168.25 228.01 166.13
  A 0.90 0.86 60.2 0 0 228.11 165.72
  L 228.25 155.77
  A 0.99 0.98 68.2 0 1 228.55 155.06
  L 229.19 154.42
  A 0.84 0.84 0.0 0 0 228.96 153.08
  L 222.14 149.76
  A 0.54 0.47 -0.0 0 1 221.90 149.55
  Q 221.30 148.57 219.54 147.90
  A 0.05 0.03 -9.2 0 1 219.50 147.88
  L 217.26 145.54
  A 0.19 0.19 0.0 0 1 217.40 145.22
  Z
  M 233.93 158.91
  Q 234.07 158.84 235.38 159.41
  A 0.44 0.44 0.0 0 0 235.99 158.93
  Q 235.88 158.36 234.78 157.89
  Q 234.02 157.58 233.61 158.64
  A 0.22 0.22 0.0 0 0 233.93 158.91
  Z
  M 239.36 160.67
  A 0.20 0.19 -47.9 0 0 239.00 160.69
  L 235.12 171.41
  A 0.22 0.22 0.0 0 0 235.37 171.70
  L 242.70 170.03
  A 0.77 0.76 -19.3 0 0 243.22 168.96
  L 239.36 160.67
  Z
  M 231.52 170.80
  Q 231.50 170.88 231.52 170.96
  A 0.06 0.05 -50.7 0 0 231.62 170.94
  Q 231.64 170.85 231.64 170.83
  A 0.07 0.06 55.9 0 0 231.52 170.80
  Z"
/>
<path fill="#bfc70f" d="
  M 267.49 141.38
  Q 268.75 139.58 270.88 138.93
  A 0.62 0.61 -83.0 0 0 271.22 138.66
  L 272.22 136.94
  A 1.11 1.11 0.0 0 1 272.78 136.44
  L 277.16 134.54
  A 1.32 1.18 -74.7 0 0 277.44 134.36
  Q 283.82 128.43 290.98 126.91
  A 5.35 5.25 -66.3 0 0 292.65 126.24
  Q 295.36 124.53 298.12 123.83
  C 299.71 123.43 300.39 122.26 302.37 121.90
  Q 303.35 121.73 303.51 121.12
  A 0.63 0.62 89.3 0 1 303.93 120.68
  L 309.36 119.02
  A 0.13 0.13 0.0 0 1 309.52 119.08
  L 309.73 119.44
  A 0.53 0.52 60.3 0 1 309.54 120.16
  L 295.40 128.53
  A 7.83 7.22 -66.8 0 1 293.90 129.20
  Q 288.35 130.93 283.06 133.99
  A 6.42 6.31 -67.3 0 1 281.54 134.63
  Q 276.70 135.95 273.51 138.84
  A 1.56 1.28 5.5 0 1 273.14 139.09
  L 267.73 141.66
  A 0.19 0.19 0.0 0 1 267.49 141.38
  Z"
/>
<path fill="#bfc70f" d="
  M 260.32 146.39
  Q 255.00 149.82 254.36 149.93
  C 251.74 150.40 250.48 153.54 246.78 153.26
  A 0.90 0.89 17.0 0 0 245.94 153.70
  L 245.29 154.85
  A 1.40 1.39 -84.5 0 1 244.54 155.47
  L 241.47 156.57
  A 0.28 0.28 0.0 0 1 241.21 156.08
  L 244.65 153.61
  A 0.76 0.75 -8.0 0 0 244.93 153.24
  Q 245.69 151.17 249.26 149.52
  Q 256.47 146.19 259.77 145.19
  A 0.67 0.67 0.0 0 1 260.32 146.39
  Z"
/>
<path fill="#bfc70f" d="
  M 202.84 191.13
  Q 207.38 189.48 210.88 192.53
  A 1.34 1.27 -17.2 0 0 211.49 192.83
  L 213.09 193.13
  A 1.37 1.36 80.6 0 1 214.01 193.79
  Q 216.60 198.42 215.83 201.98
  Q 215.36 204.14 213.61 205.95
  Q 208.91 210.80 203.09 207.43
  A 2.19 2.14 60.9 0 0 202.15 207.15
  Q 199.62 207.02 199.40 205.12
  C 199.14 202.88 198.59 202.31 198.26 199.52
  A 0.40 0.40 0.0 0 0 197.61 199.26
  Q 192.90 203.10 192.33 203.82
  Q 190.03 206.74 180.57 221.75
  A 2.75 2.56 -22.4 0 0 180.29 222.36
  L 179.52 224.71
  A 1.01 1.00 14.3 0 1 178.37 225.39
  L 177.72 225.27
  A 0.92 0.92 0.0 0 0 176.66 225.96
  C 176.12 228.26 177.27 229.76 176.35 231.91
  Q 172.69 240.43 171.49 244.82
  Q 170.56 248.23 170.44 248.42
  C 169.84 249.41 169.78 252.10 169.10 254.39
  Q 168.91 255.06 168.99 255.16
  Q 169.29 255.54 169.23 255.64
  A 0.27 0.27 0.0 0 1 168.74 255.59
  Q 168.21 253.94 168.46 252.54
  A 3.49 3.46 -44.7 0 0 168.47 251.46
  Q 167.88 247.75 168.17 246.64
  Q 169.48 241.73 169.94 238.44
  A 4.41 4.14 -31.9 0 1 170.18 237.54
  Q 171.23 234.78 171.32 234.31
  Q 172.33 228.91 174.84 220.94
  C 177.91 211.24 183.07 203.74 190.20 196.85
  A 4.94 4.60 8.4 0 1 191.48 195.97
  L 198.83 192.55
  A 2.09 2.09 0.0 0 0 199.98 191.13
  C 200.27 189.92 200.93 188.30 201.73 187.21
  Q 208.29 178.24 219.78 176.73
  A 0.54 0.54 0.0 0 1 220.33 177.50
  L 220.30 177.57
  A 2.14 2.14 0.0 0 1 218.96 178.69
  C 213.50 180.26 207.62 182.90 203.88 187.88
  Q 202.45 189.80 202.37 190.77
  A 0.35 0.35 0.0 0 0 202.84 191.13
  Z
  M 209.05 194.17
  Q 208.54 194.48 208.76 195.49
  Q 209.22 197.51 210.36 197.89
  A 0.46 0.46 0.0 0 0 210.95 197.54
  L 211.02 197.18
  A 0.96 0.96 0.0 0 0 210.39 196.10
  Q 208.64 195.51 209.33 194.46
  A 0.21 0.21 0.0 0 0 209.05 194.17
  Z
  M 201.1641 196.8485
  A 5.11 3.95 -132.1 0 0 201.6592 203.2882
  A 5.11 3.95 -132.1 0 0 208.0159 204.4315
  A 5.11 3.95 -132.1 0 0 207.5208 197.9918
  A 5.11 3.95 -132.1 0 0 201.1641 196.8485
  Z
  M 213.54 199.77
  Q 213.38 199.19 212.68 198.96
  A 0.36 0.35 -4.5 0 0 212.25 199.46
  Q 212.36 199.68 213.16 200.09
  A 0.27 0.27 0.0 0 0 213.54 199.77
  Z
  M 182.4730 208.2570
  A 2.16 0.35 -59.6 0 0 181.0781 209.9429
  A 2.16 0.35 -59.6 0 0 180.2870 211.9830
  A 2.16 0.35 -59.6 0 0 181.6819 210.2971
  A 2.16 0.35 -59.6 0 0 182.4730 208.2570
  Z
  M 180.38 213.84
  A 0.29 0.28 -85.6 0 0 180.03 213.43
  Q 178.90 213.86 178.87 214.69
  A 0.47 0.47 0.0 0 0 179.75 214.94
  L 180.38 213.84
  Z"
/>
<path fill="#bfc70f" d="
  M 136.94 230.36
  A 0.23 0.23 0.0 0 1 137.27 230.08
  L 141.20 232.35
  A 1.50 1.49 -72.3 0 1 141.94 233.80
  L 141.92 234.07
  A 0.77 0.76 19.1 0 1 140.80 234.61
  Q 138.02 233.12 136.94 230.36
  Z"
/>
<path fill="#bfc70f" d="
  M 142.55 248.50
  A 0.44 0.44 0.0 0 1 141.81 248.11
  L 143.32 240.13
  A 1.13 1.13 0.0 0 1 145.55 240.23
  Q 146.00 245.06 142.55 248.50
  Z"
/>
<path fill="#bfc70f" d="
  M 133.47 260.13
  A 0.11 0.11 0.0 0 1 133.33 260.18
  L 133.27 260.15
  A 3.30 2.05 -62.3 0 1 132.99 256.28
  L 133.78 254.77
  A 3.30 2.05 -62.3 0 1 137.13 252.80
  L 137.18 252.83
  A 0.11 0.11 0.0 0 1 137.23 252.98
  L 133.47 260.13
  Z"
/>
<rect fill="#bfc70f" x="-1.51" y="-3.62" transform="translate(168.40,266.31) rotate(-2.1)" width="3.02" height="7.24" rx="1.43"/>
<path fill="#bfc70f" d="
  M 138.81 275.13
  A 0.38 0.38 0.0 0 1 138.35 275.61
  Q 134.43 274.61 133.85 271.21
  A 1.05 1.05 0.0 0 1 135.59 270.25
  Q 137.96 272.41 138.81 275.13
  Z"
/>
<path fill="#bfc70f" d="
  M 166.82 284.18
  Q 167.29 280.51 165.57 276.48
  A 0.58 0.57 78.4 0 1 166.09 275.68
  L 166.64 275.68
  A 1.37 1.37 0.0 0 1 168.01 277.05
  L 168.01 284.45
  A 0.27 0.27 0.0 0 1 167.74 284.72
  L 167.29 284.72
  A 0.48 0.47 -86.3 0 1 166.82 284.18
  Z"
/>
<path fill="#bfc70f" d="
  M 145.98 290.71
  A 0.13 0.13 0.0 0 1 145.91 290.88
  L 145.82 290.92
  A 3.73 2.57 66.7 0 1 141.99 288.51
  L 140.78 285.72
  A 3.73 2.57 66.7 0 1 141.67 281.28
  L 141.76 281.24
  A 0.13 0.13 0.0 0 1 141.93 281.30
  L 145.98 290.71
  Z"
/>
<path fill="#bfc70f" d="
  M 155.88 294.67
  L 155.29 293.63
  A 0.26 0.26 0.0 0 1 155.58 293.25
  Q 157.23 293.72 158.19 292.90
  Q 161.00 290.48 163.69 288.56
  A 0.51 0.51 0.0 0 1 164.49 288.91
  Q 164.58 289.72 164.21 290.51
  Q 162.26 294.58 157.07 295.25
  A 1.21 1.20 -18.7 0 1 155.88 294.67
  Z"
/>
</svg>
