<?xml version="1.0" encoding="UTF-8" standalone="no"?>
<!DOCTYPE svg PUBLIC "-//W3C//DTD SVG 1.1//EN" "http://www.w3.org/Graphics/SVG/1.1/DTD/svg11.dtd">
<svg xmlns="http://www.w3.org/2000/svg" version="1.1" viewBox="0.00 0.00 228.00 204.00">
<g stroke-width="2.00" fill="none" stroke-linecap="butt">
<path stroke="#5ea266" vector-effect="non-scaling-stroke" d="
  M 200.80 89.02
  Q 203.48 89.45 205.94 89.28
  A 0.43 0.43 0.0 0 0 205.99 88.43
  Q 203.17 87.91 200.50 87.87
  Q 199.82 87.86 199.73 88.47"
/>
<path stroke="#5ea266" vector-effect="non-scaling-stroke" d="
  M 194.25 42.79
  Q 194.83 42.98 194.83 43.75
  A 0.25 0.24 -24.1 0 0 195.26 43.91
  Q 196.79 42.22 195.84 40.97
  Q 195.10 39.99 193.77 40.45
  Q 187.57 42.58 180.14 44.81
  A 0.55 0.55 0.0 0 0 180.12 45.86
  Q 180.42 45.96 181.32 45.84"
/>
<path stroke="#5ea266" vector-effect="non-scaling-stroke" d="
  M 111.35 52.40
  Q 106.17 56.36 102.28 57.05
  C 97.47 57.91 91.86 57.58 86.90 56.23
  Q 83.12 55.20 79.42 54.17
  C 72.90 52.36 66.92 49.80 60.46 48.03
  Q 59.62 47.80 55.01 45.59
  A 0.43 0.42 80.0 0 0 54.53 46.28
  Q 56.25 47.97 58.54 48.50"
/>
<path stroke="#5ea266" vector-effect="non-scaling-stroke" d="
  M 174.2198 158.6848
  A 0.45 0.45 0.0 0 0 173.8065 158.2009
  L 173.7466 158.1962
  A 0.45 0.45 0.0 0 0 173.2627 158.6095
  L 172.9002 163.2152
  A 0.45 0.45 0.0 0 0 173.3135 163.6991
  L 173.3734 163.7038
  A 0.45 0.45 0.0 0 0 173.8573 163.2905
  L 174.2198 158.6848"
/>
</g>
<path fill="#489650" d="
  M 200.80 89.02
  Q 203.48 89.45 205.94 89.28
  A 0.43 0.43 0.0 0 0 205.99 88.43
  Q 203.17 87.91 200.50 87.87
  Q 199.82 87.86 199.73 88.47
  Q 198.02 88.45 197.49 88.37
  Q 183.89 86.24 171.75 84.48
  C 166.23 83.68 146.10 80.24 146.07 72.48
  Q 146.05 69.09 149.55 66.81
  C 160.86 59.42 170.69 55.98 191.06 47.33
  Q 195.09 45.63 194.25 42.79
  Q 194.83 42.98 194.83 43.75
  A 0.25 0.24 -24.1 0 0 195.26 43.91
  Q 196.79 42.22 195.84 40.97
  Q 195.10 39.99 193.77 40.45
  Q 187.57 42.58 180.14 44.81
  A 0.55 0.55 0.0 0 0 180.12 45.86
  Q 180.42 45.96 181.32 45.84
  C 169.87 50.96 159.50 57.29 148.82 61.53
  C 143.02 63.83 136.21 64.32 131.24 59.83
  Q 128.51 57.37 125.41 51.85
  C 121.19 44.34 117.22 35.88 115.29 27.01
  Q 114.11 21.57 117.86 18.17
  C 123.30 13.24 131.49 8.87 138.88 11.37
  C 143.69 13.00 146.73 19.64 147.20 24.27
  Q 147.24 24.66 147.66 25.30
  A 0.69 0.69 0.0 0 0 148.87 25.20
  C 152.80 16.29 155.73 -0.09 169.40 3.42
  C 172.17 4.14 175.25 6.68 177.38 8.34
  Q 187.51 16.25 193.34 25.11
  Q 203.48 40.52 211.88 59.95
  Q 217.07 71.94 218.08 78.34
  Q 219.72 88.68 218.71 97.72
  C 217.54 108.12 203.27 115.64 193.92 116.08
  C 186.59 116.43 181.03 115.86 174.06 112.92
  Q 165.49 109.31 157.79 103.51
  Q 154.99 101.41 153.33 97.76
  C 150.73 92.05 155.59 90.87 160.01 90.35
  Q 176.61 88.40 195.37 89.75
  Q 197.12 89.87 200.80 89.02
  Z"
/>
<path fill="#489650" d="
  M 111.35 52.40
  Q 106.17 56.36 102.28 57.05
  C 97.47 57.91 91.86 57.58 86.90 56.23
  Q 83.12 55.20 79.42 54.17
  C 72.90 52.36 66.92 49.80 60.46 48.03
  Q 59.62 47.80 55.01 45.59
  A 0.43 0.42 80.0 0 0 54.53 46.28
  Q 56.25 47.97 58.54 48.50
  Q 62.48 52.69 66.08 56.15
  C 71.18 61.06 77.77 71.21 71.99 77.78
  Q 70.75 79.20 66.41 80.28
  Q 57.49 82.52 49.64 81.06
  A 0.32 0.32 0.0 0 0 49.32 81.56
  Q 49.84 82.26 51.92 83.04
  C 55.09 84.23 58.11 86.60 60.93 88.09
  Q 65.36 90.42 67.17 92.02
  Q 76.41 100.18 72.40 112.89
  C 70.41 119.21 64.77 125.84 57.98 127.35
  C 42.40 130.83 31.68 114.17 27.10 102.16
  Q 20.07 83.69 22.12 63.57
  C 23.38 51.21 29.84 39.63 42.09 36.05
  Q 47.45 34.48 55.42 35.94
  Q 62.45 37.22 68.18 40.09
  Q 68.61 40.30 69.80 40.28
  A 0.74 0.74 0.0 0 0 70.45 39.19
  Q 66.33 31.36 64.42 23.82
  C 63.34 19.53 62.15 14.16 64.05 10.05
  C 69.11 -0.85 85.03 6.18 91.62 11.53
  C 102.33 20.20 109.79 33.13 111.43 47.04
  Q 111.72 49.58 111.35 52.40
  Z"
/>
<path fill="#73ad7b" d="
  M 194.25 42.79
  C 190.00 41.86 185.17 44.28 181.32 45.84
  Q 180.42 45.96 180.12 45.86
  A 0.55 0.55 0.0 0 1 180.14 44.81
  Q 187.57 42.58 193.77 40.45
  Q 195.10 39.99 195.84 40.97
  Q 196.79 42.22 195.26 43.91
  A 0.25 0.24 -24.1 0 1 194.83 43.75
  Q 194.83 42.98 194.25 42.79
  Z"
/>
<path fill="#73ad7b" d="
  M 111.35 52.40
  Q 109.31 57.60 104.27 59.23
  Q 100.95 60.31 94.15 59.56
  Q 82.92 58.33 73.88 54.60
  Q 62.29 49.82 58.54 48.50
  Q 56.25 47.97 54.53 46.28
  A 0.43 0.42 80.0 0 1 55.01 45.59
  Q 59.62 47.80 60.46 48.03
  C 66.92 49.80 72.90 52.36 79.42 54.17
  Q 83.12 55.20 86.90 56.23
  C 91.86 57.58 97.47 57.91 102.28 57.05
  Q 106.17 56.36 111.35 52.40
  Z"
/>
<ellipse fill="#489650" cx="0.00" cy="0.00" transform="translate(114.68,92.65) rotate(-141.6)" rx="28.17" ry="20.42"/>
<path fill="#73ad7b" d="
  M 200.80 89.02
  Q 200.02 88.81 199.73 88.47
  Q 199.82 87.86 200.50 87.87
  Q 203.17 87.91 205.99 88.43
  A 0.43 0.43 0.0 0 1 205.94 89.28
  Q 203.48 89.45 200.80 89.02
  Z"
/>
<path fill="#489650" d="
  M 173.61 146.92
  Q 169.25 153.57 163.25 164.57
  Q 156.97 176.06 146.33 183.16
  Q 138.65 188.28 132.24 188.81
  C 123.05 189.58 113.67 184.23 106.82 179.18
  C 95.03 170.51 82.04 156.51 71.45 147.90
  Q 70.98 147.52 70.43 147.42
  A 0.45 0.45 0.0 0 0 69.94 148.04
  Q 74.68 159.08 80.33 170.70
  Q 82.99 176.17 83.45 179.95
  A 3.59 3.52 -44.5 0 1 83.43 181.01
  Q 81.96 189.49 73.83 191.35
  Q 60.02 194.50 45.74 193.88
  Q 37.82 193.53 31.89 188.60
  C 23.98 182.00 27.76 170.64 32.95 164.17
  Q 36.21 160.12 43.51 153.26
  Q 58.84 138.87 77.07 126.32
  Q 85.40 120.59 95.14 118.36
  C 100.85 117.06 104.16 123.09 103.89 127.78
  Q 103.62 132.50 103.52 137.25
  Q 103.33 146.74 112.74 146.98
  Q 114.38 147.03 119.99 144.21
  Q 127.18 140.61 139.90 132.94
  C 157.88 122.10 181.80 124.40 199.40 134.42
  C 207.09 138.80 213.00 146.26 216.09 153.71
  Q 221.76 167.38 213.97 180.24
  Q 208.77 188.84 200.83 193.87
  C 194.80 197.69 184.32 199.39 178.87 193.22
  C 172.12 185.59 170.73 177.14 171.58 167.04
  Q 172.40 157.24 174.34 147.21
  A 0.40 0.40 0.0 0 0 173.61 146.92
  Z
  M 174.2198 158.6848
  A 0.45 0.45 0.0 0 0 173.8065 158.2009
  L 173.7466 158.1962
  A 0.45 0.45 0.0 0 0 173.2627 158.6095
  L 172.9002 163.2152
  A 0.45 0.45 0.0 0 0 173.3135 163.6991
  L 173.3734 163.7038
  A 0.45 0.45 0.0 0 0 173.8573 163.2905
  L 174.2198 158.6848
  Z"
/>
<rect fill="#73ad7b" x="-0.48" y="-2.76" transform="translate(173.56,160.95) rotate(4.5)" width="0.96" height="5.52" rx="0.45"/>
</svg>
