<?xml version="1.0" encoding="UTF-8" standalone="no"?>
<!DOCTYPE svg PUBLIC "-//W3C//DTD SVG 1.1//EN" "http://www.w3.org/Graphics/SVG/1.1/DTD/svg11.dtd">
<svg xmlns="http://www.w3.org/2000/svg" version="1.1" viewBox="44.00 47.00 297.00 298.00">
<path d="
  M 114.33 66.55
  C 130.55 58.58 147.92 53.53 167.27 52.37
  Q 203.53 50.18 235.68 60.31
  C 257.49 67.18 278.02 80.90 294.07 98.24
  Q 327.25 134.09 336.58 181.97
  C 337.58 187.12 338.06 192.32 338.75 198.20
  C 340.08 209.48 339.01 220.16 337.48 231.88
  C 334.10 257.65 321.50 280.46 302.08 297.87
  C 279.21 318.38 251.66 331.47 221.52 338.25
  Q 208.70 341.13 190.82 342.79
  Q 161.73 345.48 132.30 338.16
  Q 104.75 331.31 86.12 310.63
  C 69.87 292.60 59.03 268.41 53.90 245.11
  C 52.97 240.87 51.59 234.46 50.94 229.91
  Q 47.75 207.76 48.85 183.70
  Q 49.13 177.61 49.82 173.20
  Q 50.73 167.33 51.01 162.10
  A 6.62 6.58 -35.0 0 1 51.32 160.38
  Q 51.95 158.37 53.14 151.54
  Q 54.30 144.95 57.53 134.26
  C 66.43 104.79 86.66 80.14 114.33 66.55
  Z
  M 198.68 170.87
  A 1.62 1.62 0.0 0 0 200.44 172.38
  L 237.18 169.04
  A 1.62 1.62 0.0 0 0 238.64 167.28
  L 235.71 135.08
  A 1.62 1.62 0.0 0 0 234.04 133.61
  L 198.08 134.82
  A 1.62 1.62 0.0 0 0 196.51 136.54
  L 198.68 170.87
  Z
  M 120.98 146.10
  A 2.09 2.09 0.0 0 0 118.97 148.32
  L 121.22 183.97
  A 2.09 2.09 0.0 0 0 123.58 185.91
  L 157.66 181.36
  A 2.09 2.09 0.0 0 0 159.47 179.09
  L 156.54 146.86
  A 2.09 2.09 0.0 0 0 154.39 144.96
  L 120.98 146.10
  Z
  M 271.42 221.48
  Q 266.13 222.81 260.09 223.13
  C 253.54 223.47 247.80 225.10 241.15 225.49
  Q 235.69 225.81 231.37 226.50
  C 222.92 227.84 214.16 228.42 206.51 229.77
  C 202.86 230.42 197.09 230.20 192.53 231.07
  C 185.51 232.41 177.49 232.27 170.92 233.66
  C 164.80 234.95 157.96 234.75 151.53 236.01
  Q 147.35 236.84 142.89 237.09
  C 134.73 237.57 127.72 238.90 119.42 239.55
  A 1.40 1.40 0.0 0 0 118.20 241.37
  Q 123.79 258.81 136.78 272.52
  C 145.22 281.44 155.97 288.83 167.44 291.55
  Q 174.33 293.19 175.35 293.34
  Q 178.10 293.75 187.77 293.80
  C 206.11 293.89 220.35 286.14 233.33 273.84
  Q 256.85 251.56 272.27 225.29
  Q 273.85 222.60 272.51 221.67
  A 1.35 1.34 -34.9 0 0 271.42 221.48
  Z"
/>
</svg>
