<?xml version="1.0" encoding="UTF-8" standalone="no"?>
<!DOCTYPE svg PUBLIC "-//W3C//DTD SVG 1.1//EN" "http://www.w3.org/Graphics/SVG/1.1/DTD/svg11.dtd">
<svg xmlns="http://www.w3.org/2000/svg" version="1.1" viewBox="33.00 30.00 107.00 86.00">
<path d="
  M 47.90 74.30
  A 0.46 0.46 0.0 0 1 47.25 73.76
  L 48.71 68.88
  A 0.79 0.79 0.0 0 0 48.25 67.92
  C 41.24 64.96 34.69 57.28 36.04 49.22
  C 37.41 40.98 44.57 34.65 52.50 33.09
  Q 65.53 30.53 76.33 38.40
  C 85.76 45.27 85.72 55.89 78.27 64.23
  Q 69.78 73.72 55.34 70.91
  A 1.80 1.78 -52.8 0 0 54.21 71.07
  L 47.90 74.30
  Z"
/>
<path d="
  M 133.99 93.10
  L 121.15 89.26
  A 1.59 1.59 0.0 0 0 120.01 89.36
  Q 113.98 92.31 106.76 92.36
  C 96.44 92.43 82.16 89.57 80.68 76.84
  C 79.68 68.24 86.37 60.66 93.83 57.10
  C 101.21 53.58 109.83 53.79 117.27 56.24
  C 128.89 60.06 137.64 70.01 128.69 82.24
  A 1.35 1.35 0.0 0 0 128.64 83.78
  L 134.35 92.62
  A 0.32 0.32 0.0 0 1 133.99 93.10
  Z"
/>
<path d="
  M 80.93 113.17
  L 73.78 109.60
  A 1.23 1.21 -37.4 0 0 72.98 109.50
  Q 68.31 110.54 66.50 110.76
  C 55.97 112.00 47.31 104.98 47.99 93.98
  C 48.57 84.68 57.31 79.02 65.98 79.97
  C 74.47 80.89 90.95 88.90 86.76 100.03
  C 85.73 102.77 82.10 105.31 79.30 106.95
  A 0.85 0.84 -30.6 0 0 79.00 108.10
  L 81.55 112.51
  A 0.47 0.47 0.0 0 1 80.93 113.17
  Z"
/>
</svg>
