<?xml version="1.0" encoding="UTF-8" standalone="no"?>
<!DOCTYPE svg PUBLIC "-//W3C//DTD SVG 1.1//EN" "http://www.w3.org/Graphics/SVG/1.1/DTD/svg11.dtd">
<svg xmlns="http://www.w3.org/2000/svg" version="1.1" viewBox="89.9 178.6 228.2 246.5">
<path d="
  M 151.29 317.42
  A 0.47 0.46 0.5 0 0 150.79 316.92
  Q 130.14 318.34 108.87 317.72
  Q 106.27 317.65 103.20 315.80
  C 94.88 310.81 104.63 300.84 108.87 297.27
  C 116.17 291.15 122.32 283.81 130.02 277.99
  Q 133.75 275.17 136.10 272.73
  A 3.67 3.65 64.3 0 0 137.12 269.81
  Q 136.94 268.01 135.68 266.06
  Q 127.73 253.81 122.72 241.74
  C 119.70 234.46 117.84 229.90 118.94 222.76
  Q 119.24 220.83 121.77 219.48
  C 128.20 216.04 138.57 220.20 144.89 223.13
  C 150.81 225.87 156.15 227.56 162.63 230.44
  Q 177.44 237.03 180.68 238.56
  A 0.73 0.73 0.0 0 0 181.71 238.00
  C 182.47 232.14 186.78 183.60 201.30 193.80
  C 206.09 197.16 209.05 203.84 211.53 209.46
  Q 216.36 220.44 225.70 240.89
  A 1.14 1.14 0.0 0 0 227.29 241.41
  Q 245.05 231.47 261.90 223.66
  Q 267.07 221.26 272.05 220.33
  C 275.91 219.60 281.58 220.26 282.17 225.02
  C 282.81 230.13 280.06 234.10 277.56 238.59
  Q 267.41 256.81 259.35 274.37
  A 1.48 1.48 0.0 0 0 260.23 276.39
  C 269.57 279.49 280.34 283.67 290.85 286.70
  Q 295.43 288.02 301.48 290.52
  Q 304.65 291.82 306.45 293.80
  C 313.12 301.12 297.05 306.30 292.95 307.20
  Q 279.91 310.07 268.02 315.25
  C 260.90 318.35 258.14 319.35 258.74 327.18
  Q 259.61 338.64 260.51 350.00
  C 261.01 356.43 261.13 362.88 258.91 368.89
  C 256.84 374.53 250.63 372.54 246.94 370.08
  C 238.70 364.57 230.74 356.12 224.29 348.60
  A 0.71 0.71 0.0 0 0 223.05 348.95
  C 220.46 365.27 220.62 380.49 221.41 398.26
  Q 221.48 399.82 222.01 401.41
  A 2.28 2.26 -12.9 0 0 224.47 402.94
  C 226.69 402.64 229.43 401.56 231.95 403.76
  C 235.17 406.56 234.64 410.36 231.13 412.63
  Q 228.59 414.27 224.74 414.27
  C 212.06 414.27 211.83 399.17 212.21 390.00
  Q 212.80 375.43 213.80 360.79
  C 214.15 355.56 215.39 349.67 215.17 344.52
  Q 215.09 342.55 214.70 341.95
  A 3.46 2.77 -21.4 0 0 211.20 340.86
  C 207.25 341.84 202.88 344.56 199.21 346.04
  C 191.59 349.10 183.69 351.62 181.06 357.05
  C 178.82 361.66 177.31 369.51 174.92 374.11
  C 170.81 382.01 168.70 387.19 164.85 392.87
  C 162.49 396.36 160.26 399.69 159.46 403.28
  Q 159.19 404.52 160.29 406.89
  C 161.69 409.88 163.64 414.19 162.86 417.63
  C 162.31 420.06 159.08 419.68 157.29 418.95
  C 150.10 416.01 148.42 405.67 151.44 399.43
  Q 154.54 393.02 161.37 381.67
  C 166.06 373.88 169.04 368.14 170.56 360.44
  A 0.70 0.70 0.0 0 0 169.55 359.69
  C 163.44 362.89 143.71 375.49 141.35 361.98
  Q 140.99 359.96 142.28 354.91
  Q 143.78 349.01 145.19 343.41
  C 147.29 335.03 150.46 326.42 151.29 317.42
  Z
  M 196.6883 268.1319
  A 7.42 5.56 -88.7 0 0 190.9614 275.4239
  A 7.42 5.56 -88.7 0 0 196.3517 282.9681
  A 7.42 5.56 -88.7 0 0 202.0786 275.6761
  A 7.42 5.56 -88.7 0 0 196.6883 268.1319
  Z
  M 221.2637 268.9281
  A 7.37 5.00 -82.8 0 0 215.3794 275.6133
  A 7.37 5.00 -82.8 0 0 219.4163 283.5519
  A 7.37 5.00 -82.8 0 0 225.3006 276.8667
  A 7.37 5.00 -82.8 0 0 221.2637 268.9281
  Z
  M 207.19 312.40
  C 214.88 312.74 222.31 309.62 222.91 300.96
  C 223.27 295.74 218.02 295.63 215.77 299.21
  Q 212.51 304.38 207.56 304.16
  Q 202.61 303.94 199.83 298.50
  C 197.90 294.73 192.67 294.38 192.56 299.60
  C 192.38 308.29 199.51 312.06 207.19 312.40
  Z"
/>
</svg>
