<?xml version="1.0" encoding="UTF-8" standalone="no"?>
<!DOCTYPE svg PUBLIC "-//W3C//DTD SVG 1.1//EN" "http://www.w3.org/Graphics/SVG/1.1/DTD/svg11.dtd">
<svg xmlns="http://www.w3.org/2000/svg" version="1.1" viewBox="0.00 0.00 233.00 205.00">
<g stroke-width="2.00" fill="none" stroke-linecap="butt">
<path stroke="#71a96f" vector-effect="non-scaling-stroke" d="
  M 88.50 89.05
  Q 88.75 87.67 89.43 86.60
  A 0.31 0.31 0.0 0 0 88.94 86.23
  C 86.70 88.62 85.24 89.77 82.76 92.65
  Q 79.95 95.91 76.28 98.63
  A 0.38 0.38 0.0 0 0 76.67 99.27
  Q 77.18 99.03 77.95 99.10"
/>
<path stroke="#71a96f" vector-effect="non-scaling-stroke" d="
  M 134.87 49.83
  Q 136.23 48.90 137.27 47.30
  A 0.48 0.48 0.0 0 0 136.74 46.58
  Q 132.86 47.65 127.46 46.45"
/>
<path stroke="#71a96f" vector-effect="non-scaling-stroke" d="
  M 94.17 47.85
  Q 91.15 44.29 86.53 44.37
  Q 81.99 44.44 78.70 47.56
  Q 74.73 51.34 74.35 57.36
  A 4.83 4.19 -40.9 0 1 74.23 58.20
  Q 73.38 62.09 75.75 62.63"
/>
<path stroke="#71a96f" vector-effect="non-scaling-stroke" d="
  M 63.29 46.43
  Q 60.02 43.01 55.01 45.56
  C 52.39 46.89 50.24 49.59 48.05 51.67
  A 4.80 4.71 80.0 0 0 46.92 53.32
  Q 44.24 59.81 48.07 64.66"
/>
</g>
<path fill="#47954f" d="
  M 88.50 89.05
  Q 88.75 87.67 89.43 86.60
  A 0.31 0.31 0.0 0 0 88.94 86.23
  C 86.70 88.62 85.24 89.77 82.76 92.65
  Q 79.95 95.91 76.28 98.63
  A 0.38 0.38 0.0 0 0 76.67 99.27
  Q 77.18 99.03 77.95 99.10
  Q 71.99 103.78 61.58 109.04
  Q 53.05 113.36 43.00 112.33
  C 20.82 110.04 23.10 83.68 28.34 68.82
  C 37.20 43.76 56.73 18.71 82.22 8.69
  C 86.13 7.15 92.52 6.12 96.71 6.85
  C 108.93 9.00 112.75 17.67 113.73 29.97
  Q 114.20 35.93 113.81 46.25
  Q 112.96 68.38 112.76 80.00
  Q 112.73 81.76 112.14 83.57
  A 0.67 0.67 0.0 0 1 111.16 83.94
  Q 107.78 81.97 103.62 78.44
  Q 101.96 77.03 99.75 76.42
  A 1.58 1.57 -63.2 0 0 98.09 76.97
  L 88.50 89.05
  Z
  M 75.75 62.63
  Q 76.72 67.98 81.22 68.81
  C 86.23 69.73 90.91 67.38 94.04 63.37
  Q 99.84 55.94 94.17 47.85
  Q 91.15 44.29 86.53 44.37
  Q 81.99 44.44 78.70 47.56
  Q 74.73 51.34 74.35 57.36
  A 4.83 4.19 -40.9 0 1 74.23 58.20
  Q 73.38 62.09 75.75 62.63
  Z
  M 48.07 64.66
  Q 53.12 71.61 60.90 67.64
  Q 69.09 63.46 68.31 53.27
  Q 67.93 48.22 63.29 46.43
  Q 60.02 43.01 55.01 45.56
  C 52.39 46.89 50.24 49.59 48.05 51.67
  A 4.80 4.71 80.0 0 0 46.92 53.32
  Q 44.24 59.81 48.07 64.66
  Z"
/>
<path fill="#47954f" d="
  M 134.87 49.83
  Q 136.23 48.90 137.27 47.30
  A 0.48 0.48 0.0 0 0 136.74 46.58
  Q 132.86 47.65 127.46 46.45
  Q 125.61 43.35 126.69 38.45
  Q 128.34 30.95 135.10 25.31
  Q 149.03 13.70 167.38 9.40
  C 171.28 8.49 175.91 9.01 179.41 10.41
  Q 184.08 12.26 183.82 18.07
  A 1.36 1.35 -11.5 0 0 185.76 19.35
  Q 191.24 16.72 196.33 15.36
  C 205.35 12.95 217.00 15.60 219.58 25.66
  C 222.32 36.34 213.78 45.36 205.73 51.73
  Q 204.52 52.69 203.85 53.66
  A 1.00 1.00 0.0 0 0 204.34 55.16
  C 212.35 58.05 217.53 65.75 209.83 72.99
  Q 204.05 78.42 195.27 78.11
  A 1.37 1.36 -85.5 0 0 193.86 79.32
  C 192.90 87.13 193.79 96.63 193.79 102.99
  Q 193.79 104.72 193.08 106.09
  A 1.20 1.19 -83.0 0 1 192.31 106.70
  Q 187.85 107.81 186.76 107.80
  Q 176.04 107.72 158.03 109.44
  Q 155.02 109.73 153.50 108.10
  A 2.20 2.20 0.0 0 1 153.20 105.50
  L 157.70 97.71
  A 0.50 0.50 0.0 0 0 157.26 96.96
  Q 156.32 96.96 155.38 97.65
  C 148.06 102.99 136.19 110.24 127.78 105.99
  C 120.61 102.37 122.67 93.27 126.88 87.57
  Q 132.12 80.46 134.68 76.36
  A 0.68 0.67 6.7 0 0 133.89 75.37
  Q 129.79 76.73 126.59 76.72
  C 121.35 76.71 120.31 72.01 121.64 67.89
  Q 122.61 64.88 125.98 61.22
  Q 130.79 55.96 134.87 49.83
  Z"
/>
<path fill="#9abd8e" d="
  M 94.17 47.85
  Q 87.91 45.76 83.11 48.49
  Q 75.14 53.02 75.75 62.63
  Q 73.38 62.09 74.23 58.20
  A 4.83 4.19 -40.9 0 0 74.35 57.36
  Q 74.73 51.34 78.70 47.56
  Q 81.99 44.44 86.53 44.37
  Q 91.15 44.29 94.17 47.85
  Z"
/>
<path fill="#9abd8e" d="
  M 63.29 46.43
  Q 55.15 46.94 51.37 52.62
  Q 47.74 58.09 48.07 64.66
  Q 44.24 59.81 46.92 53.32
  A 4.80 4.71 80.0 0 1 48.05 51.67
  C 50.24 49.59 52.39 46.89 55.01 45.56
  Q 60.02 43.01 63.29 46.43
  Z"
/>
<path fill="#9abd8e" d="
  M 134.87 49.83
  C 132.05 49.06 129.07 49.10 127.46 46.45
  Q 132.86 47.65 136.74 46.58
  A 0.48 0.48 0.0 0 1 137.27 47.30
  Q 136.23 48.90 134.87 49.83
  Z"
/>
<path fill="#9abd8e" d="
  M 88.50 89.05
  L 77.95 99.10
  Q 77.18 99.03 76.67 99.27
  A 0.38 0.38 0.0 0 1 76.28 98.63
  Q 79.95 95.91 82.76 92.65
  C 85.24 89.77 86.70 88.62 88.94 86.23
  A 0.31 0.31 0.0 0 1 89.43 86.60
  Q 88.75 87.67 88.50 89.05
  Z"
/>
<path fill="#47954f" d="
  M 87.65 181.42
  C 86.12 188.50 85.28 194.99 81.98 199.99
  A 2.20 2.20 0.0 0 1 80.18 200.98
  Q 53.17 201.63 24.64 199.86
  A 0.95 0.94 14.0 0 1 23.84 198.53
  Q 24.63 196.76 25.84 195.10
  Q 38.99 177.03 50.16 161.90
  Q 51.71 159.81 52.56 158.15
  A 0.72 0.72 0.0 0 0 51.90 157.11
  C 43.82 157.31 39.80 156.04 38.51 147.37
  Q 37.80 142.60 40.79 138.04
  C 46.89 128.74 55.68 125.33 66.60 125.87
  A 1.95 1.94 -70.1 0 0 68.25 125.09
  Q 78.26 111.78 90.88 97.14
  C 94.73 92.68 101.40 90.12 106.84 93.64
  Q 115.92 99.52 115.40 110.71
  Q 115.03 118.80 114.60 127.41
  A 2.15 2.15 0.0 0 0 115.90 129.49
  C 122.18 132.17 128.22 135.82 128.75 143.20
  A 3.71 3.71 0.0 0 1 126.59 146.85
  Q 122.30 148.80 116.32 146.78
  A 1.25 1.24 -78.1 0 0 114.68 147.85
  Q 114.65 148.17 115.02 149.21
  C 117.99 157.78 121.95 166.93 119.78 175.65
  Q 116.81 187.61 104.45 189.85
  C 99.84 190.69 95.42 188.59 92.52 184.94
  Q 91.71 183.92 89.21 181.02
  A 0.90 0.90 0.0 0 0 87.65 181.42
  Z"
/>
<path fill="#47954f" d="
  M 135.20 120.59
  A 0.46 0.46 0.0 0 1 135.53 120.01
  Q 138.68 119.24 142.25 119.01
  Q 158.77 117.97 174.75 117.33
  C 187.05 116.84 197.68 119.71 206.56 128.96
  C 218.14 141.02 220.10 158.13 213.01 173.10
  C 206.43 187.02 192.18 197.83 176.51 198.95
  C 167.63 199.59 159.59 197.93 152.13 192.97
  Q 139.94 184.86 136.35 170.24
  Q 135.25 165.74 135.39 158.01
  Q 135.56 148.52 140.30 140.03
  Q 140.39 139.87 144.01 133.79
  Q 145.44 131.39 143.12 129.11
  Q 137.77 123.87 135.83 121.66
  Q 135.36 121.14 135.20 120.59
  Z"
/>
</svg>
